<mxfile host="app.diagrams.net" agent="Mozilla/5.0 (Macintosh; Intel Mac OS X 10_15_7) AppleWebKit/605.1.15 (KHTML, like Gecko) Version/17.0 Safari/605.1.15" version="24.8.0">
  <diagram name="Page-1" id="m86IOtoyOujGIHVfmW9k">
    <mxGraphModel dx="636" dy="1531" grid="1" gridSize="10" guides="1" tooltips="1" connect="1" arrows="1" fold="1" page="1" pageScale="1" pageWidth="850" pageHeight="1100" math="0" shadow="0">
      <root>
        <mxCell id="0" />
        <mxCell id="1" parent="0" />
        <mxCell id="GASi60yf1O-cEDSjTEbu-42" value="Department" style="shape=table;startSize=30;container=1;collapsible=1;childLayout=tableLayout;fixedRows=1;rowLines=0;fontStyle=1;align=center;resizeLast=1;html=1;" parent="1" vertex="1">
          <mxGeometry x="360" y="-185" width="180" height="150" as="geometry" />
        </mxCell>
        <mxCell id="GASi60yf1O-cEDSjTEbu-43" value="" style="shape=tableRow;horizontal=0;startSize=0;swimlaneHead=0;swimlaneBody=0;fillColor=none;collapsible=0;dropTarget=0;points=[[0,0.5],[1,0.5]];portConstraint=eastwest;top=0;left=0;right=0;bottom=1;" parent="GASi60yf1O-cEDSjTEbu-42" vertex="1">
          <mxGeometry y="30" width="180" height="30" as="geometry" />
        </mxCell>
        <mxCell id="GASi60yf1O-cEDSjTEbu-44" value="PK" style="shape=partialRectangle;connectable=0;fillColor=none;top=0;left=0;bottom=0;right=0;fontStyle=1;overflow=hidden;whiteSpace=wrap;html=1;" parent="GASi60yf1O-cEDSjTEbu-43" vertex="1">
          <mxGeometry width="30" height="30" as="geometry">
            <mxRectangle width="30" height="30" as="alternateBounds" />
          </mxGeometry>
        </mxCell>
        <mxCell id="GASi60yf1O-cEDSjTEbu-45" value="DepartmentID: int" style="shape=partialRectangle;connectable=0;fillColor=none;top=0;left=0;bottom=0;right=0;align=left;spacingLeft=6;fontStyle=5;overflow=hidden;whiteSpace=wrap;html=1;" parent="GASi60yf1O-cEDSjTEbu-43" vertex="1">
          <mxGeometry x="30" width="150" height="30" as="geometry">
            <mxRectangle width="150" height="30" as="alternateBounds" />
          </mxGeometry>
        </mxCell>
        <mxCell id="GASi60yf1O-cEDSjTEbu-46" value="" style="shape=tableRow;horizontal=0;startSize=0;swimlaneHead=0;swimlaneBody=0;fillColor=none;collapsible=0;dropTarget=0;points=[[0,0.5],[1,0.5]];portConstraint=eastwest;top=0;left=0;right=0;bottom=0;" parent="GASi60yf1O-cEDSjTEbu-42" vertex="1">
          <mxGeometry y="60" width="180" height="30" as="geometry" />
        </mxCell>
        <mxCell id="GASi60yf1O-cEDSjTEbu-47" value="" style="shape=partialRectangle;connectable=0;fillColor=none;top=0;left=0;bottom=0;right=0;editable=1;overflow=hidden;whiteSpace=wrap;html=1;" parent="GASi60yf1O-cEDSjTEbu-46" vertex="1">
          <mxGeometry width="30" height="30" as="geometry">
            <mxRectangle width="30" height="30" as="alternateBounds" />
          </mxGeometry>
        </mxCell>
        <mxCell id="GASi60yf1O-cEDSjTEbu-48" value="DepartmentName: string" style="shape=partialRectangle;connectable=0;fillColor=none;top=0;left=0;bottom=0;right=0;align=left;spacingLeft=6;overflow=hidden;whiteSpace=wrap;html=1;" parent="GASi60yf1O-cEDSjTEbu-46" vertex="1">
          <mxGeometry x="30" width="150" height="30" as="geometry">
            <mxRectangle width="150" height="30" as="alternateBounds" />
          </mxGeometry>
        </mxCell>
        <mxCell id="GASi60yf1O-cEDSjTEbu-49" value="" style="shape=tableRow;horizontal=0;startSize=0;swimlaneHead=0;swimlaneBody=0;fillColor=none;collapsible=0;dropTarget=0;points=[[0,0.5],[1,0.5]];portConstraint=eastwest;top=0;left=0;right=0;bottom=0;" parent="GASi60yf1O-cEDSjTEbu-42" vertex="1">
          <mxGeometry y="90" width="180" height="30" as="geometry" />
        </mxCell>
        <mxCell id="GASi60yf1O-cEDSjTEbu-50" value="" style="shape=partialRectangle;connectable=0;fillColor=none;top=0;left=0;bottom=0;right=0;editable=1;overflow=hidden;whiteSpace=wrap;html=1;" parent="GASi60yf1O-cEDSjTEbu-49" vertex="1">
          <mxGeometry width="30" height="30" as="geometry">
            <mxRectangle width="30" height="30" as="alternateBounds" />
          </mxGeometry>
        </mxCell>
        <mxCell id="GASi60yf1O-cEDSjTEbu-51" value="Location: string" style="shape=partialRectangle;connectable=0;fillColor=none;top=0;left=0;bottom=0;right=0;align=left;spacingLeft=6;overflow=hidden;whiteSpace=wrap;html=1;" parent="GASi60yf1O-cEDSjTEbu-49" vertex="1">
          <mxGeometry x="30" width="150" height="30" as="geometry">
            <mxRectangle width="150" height="30" as="alternateBounds" />
          </mxGeometry>
        </mxCell>
        <mxCell id="GASi60yf1O-cEDSjTEbu-52" value="" style="shape=tableRow;horizontal=0;startSize=0;swimlaneHead=0;swimlaneBody=0;fillColor=none;collapsible=0;dropTarget=0;points=[[0,0.5],[1,0.5]];portConstraint=eastwest;top=0;left=0;right=0;bottom=0;" parent="GASi60yf1O-cEDSjTEbu-42" vertex="1">
          <mxGeometry y="120" width="180" height="30" as="geometry" />
        </mxCell>
        <mxCell id="GASi60yf1O-cEDSjTEbu-53" value="" style="shape=partialRectangle;connectable=0;fillColor=none;top=0;left=0;bottom=0;right=0;editable=1;overflow=hidden;whiteSpace=wrap;html=1;" parent="GASi60yf1O-cEDSjTEbu-52" vertex="1">
          <mxGeometry width="30" height="30" as="geometry">
            <mxRectangle width="30" height="30" as="alternateBounds" />
          </mxGeometry>
        </mxCell>
        <mxCell id="GASi60yf1O-cEDSjTEbu-54" value="Email_Address: string" style="shape=partialRectangle;connectable=0;fillColor=none;top=0;left=0;bottom=0;right=0;align=left;spacingLeft=6;overflow=hidden;whiteSpace=wrap;html=1;" parent="GASi60yf1O-cEDSjTEbu-52" vertex="1">
          <mxGeometry x="30" width="150" height="30" as="geometry">
            <mxRectangle width="150" height="30" as="alternateBounds" />
          </mxGeometry>
        </mxCell>
        <mxCell id="GASi60yf1O-cEDSjTEbu-183" value="" style="group" parent="1" vertex="1" connectable="0">
          <mxGeometry x="50" y="-510" width="180" height="220" as="geometry" />
        </mxCell>
        <mxCell id="GASi60yf1O-cEDSjTEbu-179" value="" style="group" parent="GASi60yf1O-cEDSjTEbu-183" vertex="1" connectable="0">
          <mxGeometry width="180" height="220" as="geometry" />
        </mxCell>
        <mxCell id="GASi60yf1O-cEDSjTEbu-176" value="" style="group" parent="GASi60yf1O-cEDSjTEbu-179" vertex="1" connectable="0">
          <mxGeometry width="180" height="220.00000000000003" as="geometry" />
        </mxCell>
        <mxCell id="GASi60yf1O-cEDSjTEbu-185" value="" style="group" parent="GASi60yf1O-cEDSjTEbu-176" vertex="1" connectable="0">
          <mxGeometry width="180" height="220.00000000000003" as="geometry" />
        </mxCell>
        <mxCell id="GASi60yf1O-cEDSjTEbu-175" value="Status: string" style="shape=partialRectangle;connectable=0;fillColor=none;top=0;left=0;bottom=0;right=0;align=left;spacingLeft=6;overflow=hidden;whiteSpace=wrap;html=1;" parent="GASi60yf1O-cEDSjTEbu-185" vertex="1">
          <mxGeometry x="30" y="183.33333333333334" width="150" height="36.66666666666667" as="geometry">
            <mxRectangle width="150" height="30" as="alternateBounds" />
          </mxGeometry>
        </mxCell>
        <mxCell id="GASi60yf1O-cEDSjTEbu-174" value="" style="shape=partialRectangle;connectable=0;fillColor=none;top=0;left=0;bottom=0;right=0;editable=1;overflow=hidden;whiteSpace=wrap;html=1;" parent="GASi60yf1O-cEDSjTEbu-185" vertex="1">
          <mxGeometry y="183.33333333333334" width="30" height="36.66666666666667" as="geometry">
            <mxRectangle width="30" height="30" as="alternateBounds" />
          </mxGeometry>
        </mxCell>
        <mxCell id="GASi60yf1O-cEDSjTEbu-184" value="" style="group" parent="GASi60yf1O-cEDSjTEbu-185" vertex="1" connectable="0">
          <mxGeometry width="180" height="220.00000000000003" as="geometry" />
        </mxCell>
        <mxCell id="GASi60yf1O-cEDSjTEbu-3" value="Recruiter" style="shape=table;startSize=30;container=1;collapsible=1;childLayout=tableLayout;fixedRows=1;rowLines=0;fontStyle=1;align=center;resizeLast=1;html=1;" parent="GASi60yf1O-cEDSjTEbu-184" vertex="1">
          <mxGeometry width="180" height="220.00000000000003" as="geometry" />
        </mxCell>
        <mxCell id="GASi60yf1O-cEDSjTEbu-4" value="" style="shape=tableRow;horizontal=0;startSize=0;swimlaneHead=0;swimlaneBody=0;fillColor=none;collapsible=0;dropTarget=0;points=[[0,0.5],[1,0.5]];portConstraint=eastwest;top=0;left=0;right=0;bottom=1;" parent="GASi60yf1O-cEDSjTEbu-3" vertex="1">
          <mxGeometry y="30" width="180" height="30" as="geometry" />
        </mxCell>
        <mxCell id="GASi60yf1O-cEDSjTEbu-5" value="PK" style="shape=partialRectangle;connectable=0;fillColor=none;top=0;left=0;bottom=0;right=0;fontStyle=1;overflow=hidden;whiteSpace=wrap;html=1;" parent="GASi60yf1O-cEDSjTEbu-4" vertex="1">
          <mxGeometry width="30" height="30" as="geometry">
            <mxRectangle width="30" height="30" as="alternateBounds" />
          </mxGeometry>
        </mxCell>
        <mxCell id="GASi60yf1O-cEDSjTEbu-6" value="RecruiterID: int" style="shape=partialRectangle;connectable=0;fillColor=none;top=0;left=0;bottom=0;right=0;align=left;spacingLeft=6;fontStyle=5;overflow=hidden;whiteSpace=wrap;html=1;" parent="GASi60yf1O-cEDSjTEbu-4" vertex="1">
          <mxGeometry x="30" width="150" height="30" as="geometry">
            <mxRectangle width="150" height="30" as="alternateBounds" />
          </mxGeometry>
        </mxCell>
        <mxCell id="GASi60yf1O-cEDSjTEbu-7" value="" style="shape=tableRow;horizontal=0;startSize=0;swimlaneHead=0;swimlaneBody=0;fillColor=none;collapsible=0;dropTarget=0;points=[[0,0.5],[1,0.5]];portConstraint=eastwest;top=0;left=0;right=0;bottom=0;" parent="GASi60yf1O-cEDSjTEbu-3" vertex="1">
          <mxGeometry y="60" width="180" height="30" as="geometry" />
        </mxCell>
        <mxCell id="GASi60yf1O-cEDSjTEbu-8" value="" style="shape=partialRectangle;connectable=0;fillColor=none;top=0;left=0;bottom=0;right=0;editable=1;overflow=hidden;whiteSpace=wrap;html=1;" parent="GASi60yf1O-cEDSjTEbu-7" vertex="1">
          <mxGeometry width="30" height="30" as="geometry">
            <mxRectangle width="30" height="30" as="alternateBounds" />
          </mxGeometry>
        </mxCell>
        <mxCell id="GASi60yf1O-cEDSjTEbu-9" value="Email_Address: string" style="shape=partialRectangle;connectable=0;fillColor=none;top=0;left=0;bottom=0;right=0;align=left;spacingLeft=6;overflow=hidden;whiteSpace=wrap;html=1;" parent="GASi60yf1O-cEDSjTEbu-7" vertex="1">
          <mxGeometry x="30" width="150" height="30" as="geometry">
            <mxRectangle width="150" height="30" as="alternateBounds" />
          </mxGeometry>
        </mxCell>
        <mxCell id="GASi60yf1O-cEDSjTEbu-10" value="" style="shape=tableRow;horizontal=0;startSize=0;swimlaneHead=0;swimlaneBody=0;fillColor=none;collapsible=0;dropTarget=0;points=[[0,0.5],[1,0.5]];portConstraint=eastwest;top=0;left=0;right=0;bottom=0;" parent="GASi60yf1O-cEDSjTEbu-3" vertex="1">
          <mxGeometry y="90" width="180" height="30" as="geometry" />
        </mxCell>
        <mxCell id="GASi60yf1O-cEDSjTEbu-11" value="" style="shape=partialRectangle;connectable=0;fillColor=none;top=0;left=0;bottom=0;right=0;editable=1;overflow=hidden;whiteSpace=wrap;html=1;" parent="GASi60yf1O-cEDSjTEbu-10" vertex="1">
          <mxGeometry width="30" height="30" as="geometry">
            <mxRectangle width="30" height="30" as="alternateBounds" />
          </mxGeometry>
        </mxCell>
        <mxCell id="GASi60yf1O-cEDSjTEbu-12" value="FirstName: string" style="shape=partialRectangle;connectable=0;fillColor=none;top=0;left=0;bottom=0;right=0;align=left;spacingLeft=6;overflow=hidden;whiteSpace=wrap;html=1;" parent="GASi60yf1O-cEDSjTEbu-10" vertex="1">
          <mxGeometry x="30" width="150" height="30" as="geometry">
            <mxRectangle width="150" height="30" as="alternateBounds" />
          </mxGeometry>
        </mxCell>
        <mxCell id="GASi60yf1O-cEDSjTEbu-13" value="" style="shape=tableRow;horizontal=0;startSize=0;swimlaneHead=0;swimlaneBody=0;fillColor=none;collapsible=0;dropTarget=0;points=[[0,0.5],[1,0.5]];portConstraint=eastwest;top=0;left=0;right=0;bottom=0;" parent="GASi60yf1O-cEDSjTEbu-3" vertex="1">
          <mxGeometry y="120" width="180" height="30" as="geometry" />
        </mxCell>
        <mxCell id="GASi60yf1O-cEDSjTEbu-14" value="" style="shape=partialRectangle;connectable=0;fillColor=none;top=0;left=0;bottom=0;right=0;editable=1;overflow=hidden;whiteSpace=wrap;html=1;" parent="GASi60yf1O-cEDSjTEbu-13" vertex="1">
          <mxGeometry width="30" height="30" as="geometry">
            <mxRectangle width="30" height="30" as="alternateBounds" />
          </mxGeometry>
        </mxCell>
        <mxCell id="GASi60yf1O-cEDSjTEbu-15" value="LastName: string" style="shape=partialRectangle;connectable=0;fillColor=none;top=0;left=0;bottom=0;right=0;align=left;spacingLeft=6;overflow=hidden;whiteSpace=wrap;html=1;" parent="GASi60yf1O-cEDSjTEbu-13" vertex="1">
          <mxGeometry x="30" width="150" height="30" as="geometry">
            <mxRectangle width="150" height="30" as="alternateBounds" />
          </mxGeometry>
        </mxCell>
        <mxCell id="GASi60yf1O-cEDSjTEbu-181" value="" style="shape=partialRectangle;connectable=0;fillColor=none;top=0;left=0;bottom=0;right=0;editable=1;overflow=hidden;whiteSpace=wrap;html=1;" parent="GASi60yf1O-cEDSjTEbu-184" vertex="1">
          <mxGeometry y="153.32999999999998" width="30" height="30" as="geometry">
            <mxRectangle width="30" height="30" as="alternateBounds" />
          </mxGeometry>
        </mxCell>
        <mxCell id="GASi60yf1O-cEDSjTEbu-180" value="PhoneNumber: string" style="shape=partialRectangle;connectable=0;fillColor=none;top=0;left=0;bottom=0;right=0;align=left;spacingLeft=6;overflow=hidden;whiteSpace=wrap;html=1;" parent="GASi60yf1O-cEDSjTEbu-184" vertex="1">
          <mxGeometry x="30" y="153.32999999999998" width="150" height="30" as="geometry">
            <mxRectangle width="150" height="30" as="alternateBounds" />
          </mxGeometry>
        </mxCell>
        <mxCell id="GASi60yf1O-cEDSjTEbu-178" value="" style="endArrow=none;html=1;rounded=0;" parent="GASi60yf1O-cEDSjTEbu-179" edge="1">
          <mxGeometry width="50" height="50" relative="1" as="geometry">
            <mxPoint x="30" y="220.00000000000003" as="sourcePoint" />
            <mxPoint x="30" y="183.33333333333334" as="targetPoint" />
          </mxGeometry>
        </mxCell>
        <mxCell id="GASi60yf1O-cEDSjTEbu-182" value="" style="endArrow=none;html=1;rounded=0;" parent="GASi60yf1O-cEDSjTEbu-183" edge="1">
          <mxGeometry width="50" height="50" relative="1" as="geometry">
            <mxPoint x="30" y="190" as="sourcePoint" />
            <mxPoint x="30" y="150" as="targetPoint" />
          </mxGeometry>
        </mxCell>
        <mxCell id="GASi60yf1O-cEDSjTEbu-187" value="" style="group" parent="1" vertex="1" connectable="0">
          <mxGeometry x="50" y="-200" width="180" height="180" as="geometry" />
        </mxCell>
        <mxCell id="GASi60yf1O-cEDSjTEbu-188" value="" style="group" parent="GASi60yf1O-cEDSjTEbu-187" vertex="1" connectable="0">
          <mxGeometry width="180" height="180" as="geometry" />
        </mxCell>
        <mxCell id="GASi60yf1O-cEDSjTEbu-189" value="" style="group" parent="GASi60yf1O-cEDSjTEbu-188" vertex="1" connectable="0">
          <mxGeometry width="180" height="180.00000000000003" as="geometry" />
        </mxCell>
        <mxCell id="GASi60yf1O-cEDSjTEbu-190" value="" style="group" parent="GASi60yf1O-cEDSjTEbu-189" vertex="1" connectable="0">
          <mxGeometry width="180" height="180.00000000000003" as="geometry" />
        </mxCell>
        <mxCell id="GASi60yf1O-cEDSjTEbu-193" value="" style="group" parent="GASi60yf1O-cEDSjTEbu-190" vertex="1" connectable="0">
          <mxGeometry width="180" height="180.00000000000003" as="geometry" />
        </mxCell>
        <mxCell id="GASi60yf1O-cEDSjTEbu-194" value="RecruiterJob" style="shape=table;startSize=30;container=1;collapsible=1;childLayout=tableLayout;fixedRows=1;rowLines=0;fontStyle=1;align=center;resizeLast=1;html=1;" parent="GASi60yf1O-cEDSjTEbu-193" vertex="1">
          <mxGeometry width="180" height="180.00000000000003" as="geometry" />
        </mxCell>
        <mxCell id="GASi60yf1O-cEDSjTEbu-195" value="" style="shape=tableRow;horizontal=0;startSize=0;swimlaneHead=0;swimlaneBody=0;fillColor=none;collapsible=0;dropTarget=0;points=[[0,0.5],[1,0.5]];portConstraint=eastwest;top=0;left=0;right=0;bottom=1;" parent="GASi60yf1O-cEDSjTEbu-194" vertex="1">
          <mxGeometry y="30" width="180" height="30" as="geometry" />
        </mxCell>
        <mxCell id="GASi60yf1O-cEDSjTEbu-196" value="PK" style="shape=partialRectangle;connectable=0;fillColor=none;top=0;left=0;bottom=0;right=0;fontStyle=1;overflow=hidden;whiteSpace=wrap;html=1;" parent="GASi60yf1O-cEDSjTEbu-195" vertex="1">
          <mxGeometry width="30" height="30" as="geometry">
            <mxRectangle width="30" height="30" as="alternateBounds" />
          </mxGeometry>
        </mxCell>
        <mxCell id="GASi60yf1O-cEDSjTEbu-197" value="AssignmentID: int" style="shape=partialRectangle;connectable=0;fillColor=none;top=0;left=0;bottom=0;right=0;align=left;spacingLeft=6;fontStyle=5;overflow=hidden;whiteSpace=wrap;html=1;" parent="GASi60yf1O-cEDSjTEbu-195" vertex="1">
          <mxGeometry x="30" width="150" height="30" as="geometry">
            <mxRectangle width="150" height="30" as="alternateBounds" />
          </mxGeometry>
        </mxCell>
        <mxCell id="GASi60yf1O-cEDSjTEbu-198" value="" style="shape=tableRow;horizontal=0;startSize=0;swimlaneHead=0;swimlaneBody=0;fillColor=none;collapsible=0;dropTarget=0;points=[[0,0.5],[1,0.5]];portConstraint=eastwest;top=0;left=0;right=0;bottom=0;" parent="GASi60yf1O-cEDSjTEbu-194" vertex="1">
          <mxGeometry y="60" width="180" height="30" as="geometry" />
        </mxCell>
        <mxCell id="GASi60yf1O-cEDSjTEbu-199" value="&lt;b&gt;FK&lt;/b&gt;" style="shape=partialRectangle;connectable=0;fillColor=none;top=0;left=0;bottom=0;right=0;editable=1;overflow=hidden;whiteSpace=wrap;html=1;" parent="GASi60yf1O-cEDSjTEbu-198" vertex="1">
          <mxGeometry width="30" height="30" as="geometry">
            <mxRectangle width="30" height="30" as="alternateBounds" />
          </mxGeometry>
        </mxCell>
        <mxCell id="GASi60yf1O-cEDSjTEbu-200" value="RecruiterID: int" style="shape=partialRectangle;connectable=0;fillColor=none;top=0;left=0;bottom=0;right=0;align=left;spacingLeft=6;overflow=hidden;whiteSpace=wrap;html=1;" parent="GASi60yf1O-cEDSjTEbu-198" vertex="1">
          <mxGeometry x="30" width="150" height="30" as="geometry">
            <mxRectangle width="150" height="30" as="alternateBounds" />
          </mxGeometry>
        </mxCell>
        <mxCell id="GASi60yf1O-cEDSjTEbu-201" value="" style="shape=tableRow;horizontal=0;startSize=0;swimlaneHead=0;swimlaneBody=0;fillColor=none;collapsible=0;dropTarget=0;points=[[0,0.5],[1,0.5]];portConstraint=eastwest;top=0;left=0;right=0;bottom=0;" parent="GASi60yf1O-cEDSjTEbu-194" vertex="1">
          <mxGeometry y="90" width="180" height="30" as="geometry" />
        </mxCell>
        <mxCell id="GASi60yf1O-cEDSjTEbu-202" value="&lt;b&gt;FK&lt;/b&gt;" style="shape=partialRectangle;connectable=0;fillColor=none;top=0;left=0;bottom=0;right=0;editable=1;overflow=hidden;whiteSpace=wrap;html=1;" parent="GASi60yf1O-cEDSjTEbu-201" vertex="1">
          <mxGeometry width="30" height="30" as="geometry">
            <mxRectangle width="30" height="30" as="alternateBounds" />
          </mxGeometry>
        </mxCell>
        <mxCell id="GASi60yf1O-cEDSjTEbu-203" value="JobID: int" style="shape=partialRectangle;connectable=0;fillColor=none;top=0;left=0;bottom=0;right=0;align=left;spacingLeft=6;overflow=hidden;whiteSpace=wrap;html=1;" parent="GASi60yf1O-cEDSjTEbu-201" vertex="1">
          <mxGeometry x="30" width="150" height="30" as="geometry">
            <mxRectangle width="150" height="30" as="alternateBounds" />
          </mxGeometry>
        </mxCell>
        <mxCell id="GASi60yf1O-cEDSjTEbu-204" value="" style="shape=tableRow;horizontal=0;startSize=0;swimlaneHead=0;swimlaneBody=0;fillColor=none;collapsible=0;dropTarget=0;points=[[0,0.5],[1,0.5]];portConstraint=eastwest;top=0;left=0;right=0;bottom=0;" parent="GASi60yf1O-cEDSjTEbu-194" vertex="1">
          <mxGeometry y="120" width="180" height="30" as="geometry" />
        </mxCell>
        <mxCell id="GASi60yf1O-cEDSjTEbu-205" value="" style="shape=partialRectangle;connectable=0;fillColor=none;top=0;left=0;bottom=0;right=0;editable=1;overflow=hidden;whiteSpace=wrap;html=1;" parent="GASi60yf1O-cEDSjTEbu-204" vertex="1">
          <mxGeometry width="30" height="30" as="geometry">
            <mxRectangle width="30" height="30" as="alternateBounds" />
          </mxGeometry>
        </mxCell>
        <mxCell id="GASi60yf1O-cEDSjTEbu-206" value="AssignmentDate: date" style="shape=partialRectangle;connectable=0;fillColor=none;top=0;left=0;bottom=0;right=0;align=left;spacingLeft=6;overflow=hidden;whiteSpace=wrap;html=1;" parent="GASi60yf1O-cEDSjTEbu-204" vertex="1">
          <mxGeometry x="30" width="150" height="30" as="geometry">
            <mxRectangle width="150" height="30" as="alternateBounds" />
          </mxGeometry>
        </mxCell>
        <mxCell id="GASi60yf1O-cEDSjTEbu-207" value="" style="shape=partialRectangle;connectable=0;fillColor=none;top=0;left=0;bottom=0;right=0;editable=1;overflow=hidden;whiteSpace=wrap;html=1;" parent="GASi60yf1O-cEDSjTEbu-193" vertex="1">
          <mxGeometry y="125.45181818181817" width="30" height="24.545454545454547" as="geometry">
            <mxRectangle width="30" height="30" as="alternateBounds" />
          </mxGeometry>
        </mxCell>
        <mxCell id="GASi60yf1O-cEDSjTEbu-208" value="AssignmentStatus: string" style="shape=partialRectangle;connectable=0;fillColor=none;top=0;left=0;bottom=0;right=0;align=left;spacingLeft=6;overflow=hidden;whiteSpace=wrap;html=1;" parent="GASi60yf1O-cEDSjTEbu-193" vertex="1">
          <mxGeometry x="30" y="155.45781818181817" width="150" height="24.545454545454547" as="geometry">
            <mxRectangle width="150" height="30" as="alternateBounds" />
          </mxGeometry>
        </mxCell>
        <mxCell id="GASi60yf1O-cEDSjTEbu-209" value="" style="endArrow=none;html=1;rounded=0;" parent="GASi60yf1O-cEDSjTEbu-188" edge="1">
          <mxGeometry width="50" height="50" relative="1" as="geometry">
            <mxPoint x="30" y="180.00000000000003" as="sourcePoint" />
            <mxPoint x="30" y="150" as="targetPoint" />
          </mxGeometry>
        </mxCell>
        <mxCell id="GASi60yf1O-cEDSjTEbu-210" value="" style="endArrow=none;html=1;rounded=0;" parent="GASi60yf1O-cEDSjTEbu-187" edge="1">
          <mxGeometry width="50" height="50" relative="1" as="geometry">
            <mxPoint x="30" y="155.45454545454544" as="sourcePoint" />
            <mxPoint x="30" y="122.72727272727272" as="targetPoint" />
          </mxGeometry>
        </mxCell>
        <mxCell id="GASi60yf1O-cEDSjTEbu-239" value="" style="group" parent="1" vertex="1" connectable="0">
          <mxGeometry x="600" y="-290" width="180" height="260" as="geometry" />
        </mxCell>
        <mxCell id="GASi60yf1O-cEDSjTEbu-211" value="" style="group" parent="GASi60yf1O-cEDSjTEbu-239" vertex="1" connectable="0">
          <mxGeometry width="180" height="260" as="geometry" />
        </mxCell>
        <mxCell id="GASi60yf1O-cEDSjTEbu-212" value="" style="group" parent="GASi60yf1O-cEDSjTEbu-211" vertex="1" connectable="0">
          <mxGeometry width="180" height="260.00000000000006" as="geometry" />
        </mxCell>
        <mxCell id="GASi60yf1O-cEDSjTEbu-213" value="" style="group" parent="GASi60yf1O-cEDSjTEbu-212" vertex="1" connectable="0">
          <mxGeometry width="180" height="260.00000000000006" as="geometry" />
        </mxCell>
        <mxCell id="GASi60yf1O-cEDSjTEbu-214" value="" style="group" parent="GASi60yf1O-cEDSjTEbu-213" vertex="1" connectable="0">
          <mxGeometry width="180" height="260.00000000000006" as="geometry" />
        </mxCell>
        <mxCell id="GASi60yf1O-cEDSjTEbu-215" value="Status: string" style="shape=partialRectangle;connectable=0;fillColor=none;top=0;left=0;bottom=0;right=0;align=left;spacingLeft=6;overflow=hidden;whiteSpace=wrap;html=1;" parent="GASi60yf1O-cEDSjTEbu-214" vertex="1">
          <mxGeometry x="30" y="216.66666666666669" width="150" height="43.33333333333335" as="geometry">
            <mxRectangle width="150" height="30" as="alternateBounds" />
          </mxGeometry>
        </mxCell>
        <mxCell id="GASi60yf1O-cEDSjTEbu-216" value="" style="shape=partialRectangle;connectable=0;fillColor=none;top=0;left=0;bottom=0;right=0;editable=1;overflow=hidden;whiteSpace=wrap;html=1;" parent="GASi60yf1O-cEDSjTEbu-214" vertex="1">
          <mxGeometry y="216.66666666666669" width="30" height="43.33333333333335" as="geometry">
            <mxRectangle width="30" height="30" as="alternateBounds" />
          </mxGeometry>
        </mxCell>
        <mxCell id="GASi60yf1O-cEDSjTEbu-217" value="" style="group" parent="GASi60yf1O-cEDSjTEbu-214" vertex="1" connectable="0">
          <mxGeometry width="180" height="260.00000000000006" as="geometry" />
        </mxCell>
        <mxCell id="GASi60yf1O-cEDSjTEbu-231" value="" style="shape=partialRectangle;connectable=0;fillColor=none;top=0;left=0;bottom=0;right=0;editable=1;overflow=hidden;whiteSpace=wrap;html=1;" parent="GASi60yf1O-cEDSjTEbu-217" vertex="1">
          <mxGeometry y="181.20818181818183" width="30" height="35.45454545454547" as="geometry">
            <mxRectangle width="30" height="30" as="alternateBounds" />
          </mxGeometry>
        </mxCell>
        <mxCell id="GASi60yf1O-cEDSjTEbu-232" value="Designation: string" style="shape=partialRectangle;connectable=0;fillColor=none;top=0;left=0;bottom=0;right=0;align=left;spacingLeft=6;overflow=hidden;whiteSpace=wrap;html=1;" parent="GASi60yf1O-cEDSjTEbu-217" vertex="1">
          <mxGeometry x="30" y="181.20818181818183" width="150" height="35.45454545454547" as="geometry">
            <mxRectangle width="150" height="30" as="alternateBounds" />
          </mxGeometry>
        </mxCell>
        <mxCell id="GASi60yf1O-cEDSjTEbu-237" value="" style="group" parent="GASi60yf1O-cEDSjTEbu-217" vertex="1" connectable="0">
          <mxGeometry width="180" height="260.00000000000006" as="geometry" />
        </mxCell>
        <mxCell id="GASi60yf1O-cEDSjTEbu-236" value="&lt;b&gt;FK&lt;/b&gt;" style="shape=partialRectangle;connectable=0;fillColor=none;top=0;left=0;bottom=0;right=0;editable=1;overflow=hidden;whiteSpace=wrap;html=1;" parent="GASi60yf1O-cEDSjTEbu-237" vertex="1">
          <mxGeometry y="145.75818181818178" width="30" height="35.45454545454547" as="geometry">
            <mxRectangle width="30" height="30" as="alternateBounds" />
          </mxGeometry>
        </mxCell>
        <mxCell id="GASi60yf1O-cEDSjTEbu-269" value="" style="group" parent="GASi60yf1O-cEDSjTEbu-237" vertex="1" connectable="0">
          <mxGeometry width="180" height="260.00000000000006" as="geometry" />
        </mxCell>
        <mxCell id="GASi60yf1O-cEDSjTEbu-218" value="Panelist" style="shape=table;startSize=30;container=1;collapsible=1;childLayout=tableLayout;fixedRows=1;rowLines=0;fontStyle=1;align=center;resizeLast=1;html=1;" parent="GASi60yf1O-cEDSjTEbu-269" vertex="1">
          <mxGeometry width="180" height="260.00000000000006" as="geometry" />
        </mxCell>
        <mxCell id="GASi60yf1O-cEDSjTEbu-219" value="" style="shape=tableRow;horizontal=0;startSize=0;swimlaneHead=0;swimlaneBody=0;fillColor=none;collapsible=0;dropTarget=0;points=[[0,0.5],[1,0.5]];portConstraint=eastwest;top=0;left=0;right=0;bottom=1;" parent="GASi60yf1O-cEDSjTEbu-218" vertex="1">
          <mxGeometry y="30" width="180" height="30" as="geometry" />
        </mxCell>
        <mxCell id="GASi60yf1O-cEDSjTEbu-220" value="PK" style="shape=partialRectangle;connectable=0;fillColor=none;top=0;left=0;bottom=0;right=0;fontStyle=1;overflow=hidden;whiteSpace=wrap;html=1;" parent="GASi60yf1O-cEDSjTEbu-219" vertex="1">
          <mxGeometry width="30" height="30" as="geometry">
            <mxRectangle width="30" height="30" as="alternateBounds" />
          </mxGeometry>
        </mxCell>
        <mxCell id="GASi60yf1O-cEDSjTEbu-221" value="PanelistID: int" style="shape=partialRectangle;connectable=0;fillColor=none;top=0;left=0;bottom=0;right=0;align=left;spacingLeft=6;fontStyle=5;overflow=hidden;whiteSpace=wrap;html=1;" parent="GASi60yf1O-cEDSjTEbu-219" vertex="1">
          <mxGeometry x="30" width="150" height="30" as="geometry">
            <mxRectangle width="150" height="30" as="alternateBounds" />
          </mxGeometry>
        </mxCell>
        <mxCell id="GASi60yf1O-cEDSjTEbu-222" value="" style="shape=tableRow;horizontal=0;startSize=0;swimlaneHead=0;swimlaneBody=0;fillColor=none;collapsible=0;dropTarget=0;points=[[0,0.5],[1,0.5]];portConstraint=eastwest;top=0;left=0;right=0;bottom=0;" parent="GASi60yf1O-cEDSjTEbu-218" vertex="1">
          <mxGeometry y="60" width="180" height="30" as="geometry" />
        </mxCell>
        <mxCell id="GASi60yf1O-cEDSjTEbu-223" value="" style="shape=partialRectangle;connectable=0;fillColor=none;top=0;left=0;bottom=0;right=0;editable=1;overflow=hidden;whiteSpace=wrap;html=1;" parent="GASi60yf1O-cEDSjTEbu-222" vertex="1">
          <mxGeometry width="30" height="30" as="geometry">
            <mxRectangle width="30" height="30" as="alternateBounds" />
          </mxGeometry>
        </mxCell>
        <mxCell id="GASi60yf1O-cEDSjTEbu-224" value="Email_Address: string" style="shape=partialRectangle;connectable=0;fillColor=none;top=0;left=0;bottom=0;right=0;align=left;spacingLeft=6;overflow=hidden;whiteSpace=wrap;html=1;" parent="GASi60yf1O-cEDSjTEbu-222" vertex="1">
          <mxGeometry x="30" width="150" height="30" as="geometry">
            <mxRectangle width="150" height="30" as="alternateBounds" />
          </mxGeometry>
        </mxCell>
        <mxCell id="GASi60yf1O-cEDSjTEbu-225" value="" style="shape=tableRow;horizontal=0;startSize=0;swimlaneHead=0;swimlaneBody=0;fillColor=none;collapsible=0;dropTarget=0;points=[[0,0.5],[1,0.5]];portConstraint=eastwest;top=0;left=0;right=0;bottom=0;" parent="GASi60yf1O-cEDSjTEbu-218" vertex="1">
          <mxGeometry y="90" width="180" height="30" as="geometry" />
        </mxCell>
        <mxCell id="GASi60yf1O-cEDSjTEbu-226" value="" style="shape=partialRectangle;connectable=0;fillColor=none;top=0;left=0;bottom=0;right=0;editable=1;overflow=hidden;whiteSpace=wrap;html=1;" parent="GASi60yf1O-cEDSjTEbu-225" vertex="1">
          <mxGeometry width="30" height="30" as="geometry">
            <mxRectangle width="30" height="30" as="alternateBounds" />
          </mxGeometry>
        </mxCell>
        <mxCell id="GASi60yf1O-cEDSjTEbu-227" value="FirstName: string" style="shape=partialRectangle;connectable=0;fillColor=none;top=0;left=0;bottom=0;right=0;align=left;spacingLeft=6;overflow=hidden;whiteSpace=wrap;html=1;" parent="GASi60yf1O-cEDSjTEbu-225" vertex="1">
          <mxGeometry x="30" width="150" height="30" as="geometry">
            <mxRectangle width="150" height="30" as="alternateBounds" />
          </mxGeometry>
        </mxCell>
        <mxCell id="GASi60yf1O-cEDSjTEbu-228" value="" style="shape=tableRow;horizontal=0;startSize=0;swimlaneHead=0;swimlaneBody=0;fillColor=none;collapsible=0;dropTarget=0;points=[[0,0.5],[1,0.5]];portConstraint=eastwest;top=0;left=0;right=0;bottom=0;" parent="GASi60yf1O-cEDSjTEbu-218" vertex="1">
          <mxGeometry y="120" width="180" height="30" as="geometry" />
        </mxCell>
        <mxCell id="GASi60yf1O-cEDSjTEbu-229" value="" style="shape=partialRectangle;connectable=0;fillColor=none;top=0;left=0;bottom=0;right=0;editable=1;overflow=hidden;whiteSpace=wrap;html=1;" parent="GASi60yf1O-cEDSjTEbu-228" vertex="1">
          <mxGeometry width="30" height="30" as="geometry">
            <mxRectangle width="30" height="30" as="alternateBounds" />
          </mxGeometry>
        </mxCell>
        <mxCell id="GASi60yf1O-cEDSjTEbu-230" value="LastName: string" style="shape=partialRectangle;connectable=0;fillColor=none;top=0;left=0;bottom=0;right=0;align=left;spacingLeft=6;overflow=hidden;whiteSpace=wrap;html=1;" parent="GASi60yf1O-cEDSjTEbu-228" vertex="1">
          <mxGeometry x="30" width="150" height="30" as="geometry">
            <mxRectangle width="150" height="30" as="alternateBounds" />
          </mxGeometry>
        </mxCell>
        <mxCell id="GASi60yf1O-cEDSjTEbu-235" value="DepartmentID: int" style="shape=partialRectangle;connectable=0;fillColor=none;top=0;left=0;bottom=0;right=0;align=left;spacingLeft=6;overflow=hidden;whiteSpace=wrap;html=1;" parent="GASi60yf1O-cEDSjTEbu-269" vertex="1">
          <mxGeometry x="30" y="147.11863636363637" width="150" height="34.09090909090909" as="geometry">
            <mxRectangle width="150" height="30" as="alternateBounds" />
          </mxGeometry>
        </mxCell>
        <mxCell id="GASi60yf1O-cEDSjTEbu-233" value="" style="endArrow=none;html=1;rounded=0;" parent="GASi60yf1O-cEDSjTEbu-212" edge="1">
          <mxGeometry width="50" height="50" relative="1" as="geometry">
            <mxPoint x="30" y="260.00000000000006" as="sourcePoint" />
            <mxPoint x="30" y="216.66666666666669" as="targetPoint" />
          </mxGeometry>
        </mxCell>
        <mxCell id="GASi60yf1O-cEDSjTEbu-234" value="" style="endArrow=none;html=1;rounded=0;" parent="GASi60yf1O-cEDSjTEbu-211" edge="1">
          <mxGeometry width="50" height="50" relative="1" as="geometry">
            <mxPoint x="30" y="224.5454545454546" as="sourcePoint" />
            <mxPoint x="30" y="177.27272727272725" as="targetPoint" />
          </mxGeometry>
        </mxCell>
        <mxCell id="GASi60yf1O-cEDSjTEbu-238" value="" style="endArrow=none;html=1;rounded=0;" parent="GASi60yf1O-cEDSjTEbu-239" edge="1">
          <mxGeometry width="50" height="50" relative="1" as="geometry">
            <mxPoint x="30" y="180.00000000000003" as="sourcePoint" />
            <mxPoint x="30" y="149.99999999999997" as="targetPoint" />
          </mxGeometry>
        </mxCell>
        <mxCell id="GASi60yf1O-cEDSjTEbu-275" value="" style="group" parent="1" vertex="1" connectable="0">
          <mxGeometry x="50" y="110" width="180" height="300.0000000000001" as="geometry" />
        </mxCell>
        <mxCell id="GASi60yf1O-cEDSjTEbu-271" value="" style="group" parent="GASi60yf1O-cEDSjTEbu-275" vertex="1" connectable="0">
          <mxGeometry width="180" height="300.0000000000001" as="geometry" />
        </mxCell>
        <mxCell id="GASi60yf1O-cEDSjTEbu-173" value="" style="shape=tableRow;horizontal=0;startSize=0;swimlaneHead=0;swimlaneBody=0;fillColor=none;collapsible=0;dropTarget=0;points=[[0,0.5],[1,0.5]];portConstraint=eastwest;top=0;left=0;right=0;bottom=0;" parent="GASi60yf1O-cEDSjTEbu-271" vertex="1">
          <mxGeometry y="80" width="180" height="30" as="geometry" />
        </mxCell>
        <mxCell id="GASi60yf1O-cEDSjTEbu-240" value="" style="group" parent="GASi60yf1O-cEDSjTEbu-271" vertex="1" connectable="0">
          <mxGeometry width="180" height="300.0000000000001" as="geometry" />
        </mxCell>
        <mxCell id="GASi60yf1O-cEDSjTEbu-241" value="" style="group" parent="GASi60yf1O-cEDSjTEbu-240" vertex="1" connectable="0">
          <mxGeometry width="180" height="300.0000000000001" as="geometry" />
        </mxCell>
        <mxCell id="GASi60yf1O-cEDSjTEbu-242" value="" style="group" parent="GASi60yf1O-cEDSjTEbu-241" vertex="1" connectable="0">
          <mxGeometry width="180" height="300.0000000000001" as="geometry" />
        </mxCell>
        <mxCell id="GASi60yf1O-cEDSjTEbu-243" value="" style="group" parent="GASi60yf1O-cEDSjTEbu-242" vertex="1" connectable="0">
          <mxGeometry width="180" height="300.0000000000001" as="geometry" />
        </mxCell>
        <mxCell id="GASi60yf1O-cEDSjTEbu-244" value="" style="group" parent="GASi60yf1O-cEDSjTEbu-243" vertex="1" connectable="0">
          <mxGeometry width="180" height="300.0000000000001" as="geometry" />
        </mxCell>
        <mxCell id="GASi60yf1O-cEDSjTEbu-245" value="Deadline: date" style="shape=partialRectangle;connectable=0;fillColor=none;top=0;left=0;bottom=0;right=0;align=left;spacingLeft=6;overflow=hidden;whiteSpace=wrap;html=1;" parent="GASi60yf1O-cEDSjTEbu-244" vertex="1">
          <mxGeometry x="30" y="216.6666666666667" width="150" height="43.33333333333336" as="geometry">
            <mxRectangle width="150" height="30" as="alternateBounds" />
          </mxGeometry>
        </mxCell>
        <mxCell id="GASi60yf1O-cEDSjTEbu-246" value="&lt;span style=&quot;color: rgba(0, 0, 0, 0); font-family: monospace; font-size: 0px; text-align: start; text-wrap: nowrap;&quot;&gt;%3CmxGraphModel%3E%3Croot%3E%3CmxCell%20id%3D%220%22%2F%3E%3CmxCell%20id%3D%221%22%20parent%3D%220%22%2F%3E%3CmxCell%20id%3D%222%22%20value%3D%22Status%3A%20string%22%20style%3D%22shape%3DpartialRectangle%3Bconnectable%3D0%3BfillColor%3Dnone%3Btop%3D0%3Bleft%3D0%3Bbottom%3D0%3Bright%3D0%3Balign%3Dleft%3BspacingLeft%3D6%3Boverflow%3Dhidden%3BwhiteSpace%3Dwrap%3Bhtml%3D1%3B%22%20vertex%3D%221%22%20parent%3D%221%22%3E%3CmxGeometry%20x%3D%2260%22%20y%3D%22326.66666666666674%22%20width%3D%22150%22%20height%3D%2243.33333333333336%22%20as%3D%22geometry%22%3E%3CmxRectangle%20width%3D%22150%22%20height%3D%2230%22%20as%3D%22alternateBounds%22%2F%3E%3C%2FmxGeometry%3E%3C%2FmxCell%3E%3C%2Froot%3E%3C%2FmxGraphModel%3E&lt;/span&gt;" style="shape=partialRectangle;connectable=0;fillColor=none;top=0;left=0;bottom=0;right=0;editable=1;overflow=hidden;whiteSpace=wrap;html=1;" parent="GASi60yf1O-cEDSjTEbu-244" vertex="1">
          <mxGeometry y="216.6666666666667" width="30" height="43.33333333333336" as="geometry">
            <mxRectangle width="30" height="30" as="alternateBounds" />
          </mxGeometry>
        </mxCell>
        <mxCell id="GASi60yf1O-cEDSjTEbu-247" value="" style="group" parent="GASi60yf1O-cEDSjTEbu-244" vertex="1" connectable="0">
          <mxGeometry width="180" height="300.0000000000001" as="geometry" />
        </mxCell>
        <mxCell id="GASi60yf1O-cEDSjTEbu-248" value="" style="shape=partialRectangle;connectable=0;fillColor=none;top=0;left=0;bottom=0;right=0;editable=1;overflow=hidden;whiteSpace=wrap;html=1;" parent="GASi60yf1O-cEDSjTEbu-247" vertex="1">
          <mxGeometry y="181.20818181818183" width="30" height="35.454545454545475" as="geometry">
            <mxRectangle width="30" height="30" as="alternateBounds" />
          </mxGeometry>
        </mxCell>
        <mxCell id="GASi60yf1O-cEDSjTEbu-249" value="SalaryMax: int" style="shape=partialRectangle;connectable=0;fillColor=none;top=0;left=0;bottom=0;right=0;align=left;spacingLeft=6;overflow=hidden;whiteSpace=wrap;html=1;" parent="GASi60yf1O-cEDSjTEbu-247" vertex="1">
          <mxGeometry x="30" y="181.20818181818183" width="150" height="35.454545454545475" as="geometry">
            <mxRectangle width="150" height="30" as="alternateBounds" />
          </mxGeometry>
        </mxCell>
        <mxCell id="GASi60yf1O-cEDSjTEbu-250" value="" style="group" parent="GASi60yf1O-cEDSjTEbu-247" vertex="1" connectable="0">
          <mxGeometry width="180" height="300.0000000000001" as="geometry" />
        </mxCell>
        <mxCell id="GASi60yf1O-cEDSjTEbu-251" value="Job" style="shape=table;startSize=30;container=1;collapsible=1;childLayout=tableLayout;fixedRows=1;rowLines=0;fontStyle=1;align=center;resizeLast=1;html=1;" parent="GASi60yf1O-cEDSjTEbu-250" vertex="1">
          <mxGeometry width="180" height="300" as="geometry" />
        </mxCell>
        <mxCell id="GASi60yf1O-cEDSjTEbu-252" value="" style="shape=tableRow;horizontal=0;startSize=0;swimlaneHead=0;swimlaneBody=0;fillColor=none;collapsible=0;dropTarget=0;points=[[0,0.5],[1,0.5]];portConstraint=eastwest;top=0;left=0;right=0;bottom=1;" parent="GASi60yf1O-cEDSjTEbu-251" vertex="1">
          <mxGeometry y="30" width="180" height="30" as="geometry" />
        </mxCell>
        <mxCell id="GASi60yf1O-cEDSjTEbu-253" value="PK" style="shape=partialRectangle;connectable=0;fillColor=none;top=0;left=0;bottom=0;right=0;fontStyle=1;overflow=hidden;whiteSpace=wrap;html=1;" parent="GASi60yf1O-cEDSjTEbu-252" vertex="1">
          <mxGeometry width="30" height="30" as="geometry">
            <mxRectangle width="30" height="30" as="alternateBounds" />
          </mxGeometry>
        </mxCell>
        <mxCell id="GASi60yf1O-cEDSjTEbu-254" value="JobID: int" style="shape=partialRectangle;connectable=0;fillColor=none;top=0;left=0;bottom=0;right=0;align=left;spacingLeft=6;fontStyle=5;overflow=hidden;whiteSpace=wrap;html=1;" parent="GASi60yf1O-cEDSjTEbu-252" vertex="1">
          <mxGeometry x="30" width="150" height="30" as="geometry">
            <mxRectangle width="150" height="30" as="alternateBounds" />
          </mxGeometry>
        </mxCell>
        <mxCell id="GASi60yf1O-cEDSjTEbu-255" value="" style="shape=tableRow;horizontal=0;startSize=0;swimlaneHead=0;swimlaneBody=0;fillColor=none;collapsible=0;dropTarget=0;points=[[0,0.5],[1,0.5]];portConstraint=eastwest;top=0;left=0;right=0;bottom=0;" parent="GASi60yf1O-cEDSjTEbu-251" vertex="1">
          <mxGeometry y="60" width="180" height="30" as="geometry" />
        </mxCell>
        <mxCell id="GASi60yf1O-cEDSjTEbu-256" value="&lt;b&gt;FK&lt;/b&gt;" style="shape=partialRectangle;connectable=0;fillColor=none;top=0;left=0;bottom=0;right=0;editable=1;overflow=hidden;whiteSpace=wrap;html=1;" parent="GASi60yf1O-cEDSjTEbu-255" vertex="1">
          <mxGeometry width="30" height="30" as="geometry">
            <mxRectangle width="30" height="30" as="alternateBounds" />
          </mxGeometry>
        </mxCell>
        <mxCell id="GASi60yf1O-cEDSjTEbu-257" value="DepartmentID: int" style="shape=partialRectangle;connectable=0;fillColor=none;top=0;left=0;bottom=0;right=0;align=left;spacingLeft=6;overflow=hidden;whiteSpace=wrap;html=1;" parent="GASi60yf1O-cEDSjTEbu-255" vertex="1">
          <mxGeometry x="30" width="150" height="30" as="geometry">
            <mxRectangle width="150" height="30" as="alternateBounds" />
          </mxGeometry>
        </mxCell>
        <mxCell id="GASi60yf1O-cEDSjTEbu-258" value="" style="shape=tableRow;horizontal=0;startSize=0;swimlaneHead=0;swimlaneBody=0;fillColor=none;collapsible=0;dropTarget=0;points=[[0,0.5],[1,0.5]];portConstraint=eastwest;top=0;left=0;right=0;bottom=0;" parent="GASi60yf1O-cEDSjTEbu-251" vertex="1">
          <mxGeometry y="90" width="180" height="30" as="geometry" />
        </mxCell>
        <mxCell id="GASi60yf1O-cEDSjTEbu-259" value="" style="shape=partialRectangle;connectable=0;fillColor=none;top=0;left=0;bottom=0;right=0;editable=1;overflow=hidden;whiteSpace=wrap;html=1;" parent="GASi60yf1O-cEDSjTEbu-258" vertex="1">
          <mxGeometry width="30" height="30" as="geometry">
            <mxRectangle width="30" height="30" as="alternateBounds" />
          </mxGeometry>
        </mxCell>
        <mxCell id="GASi60yf1O-cEDSjTEbu-260" value="Title: string" style="shape=partialRectangle;connectable=0;fillColor=none;top=0;left=0;bottom=0;right=0;align=left;spacingLeft=6;overflow=hidden;whiteSpace=wrap;html=1;" parent="GASi60yf1O-cEDSjTEbu-258" vertex="1">
          <mxGeometry x="30" width="150" height="30" as="geometry">
            <mxRectangle width="150" height="30" as="alternateBounds" />
          </mxGeometry>
        </mxCell>
        <mxCell id="GASi60yf1O-cEDSjTEbu-261" value="" style="shape=tableRow;horizontal=0;startSize=0;swimlaneHead=0;swimlaneBody=0;fillColor=none;collapsible=0;dropTarget=0;points=[[0,0.5],[1,0.5]];portConstraint=eastwest;top=0;left=0;right=0;bottom=0;" parent="GASi60yf1O-cEDSjTEbu-251" vertex="1">
          <mxGeometry y="120" width="180" height="30" as="geometry" />
        </mxCell>
        <mxCell id="GASi60yf1O-cEDSjTEbu-262" value="" style="shape=partialRectangle;connectable=0;fillColor=none;top=0;left=0;bottom=0;right=0;editable=1;overflow=hidden;whiteSpace=wrap;html=1;" parent="GASi60yf1O-cEDSjTEbu-261" vertex="1">
          <mxGeometry width="30" height="30" as="geometry">
            <mxRectangle width="30" height="30" as="alternateBounds" />
          </mxGeometry>
        </mxCell>
        <mxCell id="GASi60yf1O-cEDSjTEbu-263" value="Description: string" style="shape=partialRectangle;connectable=0;fillColor=none;top=0;left=0;bottom=0;right=0;align=left;spacingLeft=6;overflow=hidden;whiteSpace=wrap;html=1;" parent="GASi60yf1O-cEDSjTEbu-261" vertex="1">
          <mxGeometry x="30" width="150" height="30" as="geometry">
            <mxRectangle width="150" height="30" as="alternateBounds" />
          </mxGeometry>
        </mxCell>
        <mxCell id="GASi60yf1O-cEDSjTEbu-264" value="" style="shape=partialRectangle;connectable=0;fillColor=none;top=0;left=0;bottom=0;right=0;editable=1;overflow=hidden;whiteSpace=wrap;html=1;" parent="GASi60yf1O-cEDSjTEbu-250" vertex="1">
          <mxGeometry y="145.75818181818178" width="30" height="35.454545454545475" as="geometry">
            <mxRectangle width="30" height="30" as="alternateBounds" />
          </mxGeometry>
        </mxCell>
        <mxCell id="GASi60yf1O-cEDSjTEbu-270" value="SalaryMin: int" style="shape=partialRectangle;connectable=0;fillColor=none;top=0;left=0;bottom=0;right=0;align=left;spacingLeft=6;overflow=hidden;whiteSpace=wrap;html=1;" parent="GASi60yf1O-cEDSjTEbu-250" vertex="1">
          <mxGeometry x="30" y="147.11863636363637" width="150" height="34.0909090909091" as="geometry">
            <mxRectangle width="150" height="30" as="alternateBounds" />
          </mxGeometry>
        </mxCell>
        <mxCell id="GASi60yf1O-cEDSjTEbu-272" value="Status: string" style="shape=partialRectangle;connectable=0;fillColor=none;top=0;left=0;bottom=0;right=0;align=left;spacingLeft=6;overflow=hidden;whiteSpace=wrap;html=1;" parent="GASi60yf1O-cEDSjTEbu-250" vertex="1">
          <mxGeometry x="30" y="256.66666666666674" width="150" height="43.33333333333336" as="geometry">
            <mxRectangle width="150" height="30" as="alternateBounds" />
          </mxGeometry>
        </mxCell>
        <mxCell id="GASi60yf1O-cEDSjTEbu-273" value="&lt;span style=&quot;color: rgba(0, 0, 0, 0); font-family: monospace; font-size: 0px; text-align: start; text-wrap: nowrap;&quot;&gt;%3CmxGraphModel%3E%3Croot%3E%3CmxCell%20id%3D%220%22%2F%3E%3CmxCell%20id%3D%221%22%20parent%3D%220%22%2F%3E%3CmxCell%20id%3D%222%22%20value%3D%22Status%3A%20string%22%20style%3D%22shape%3DpartialRectangle%3Bconnectable%3D0%3BfillColor%3Dnone%3Btop%3D0%3Bleft%3D0%3Bbottom%3D0%3Bright%3D0%3Balign%3Dleft%3BspacingLeft%3D6%3Boverflow%3Dhidden%3BwhiteSpace%3Dwrap%3Bhtml%3D1%3B%22%20vertex%3D%221%22%20parent%3D%221%22%3E%3CmxGeometry%20x%3D%2260%22%20y%3D%22326.66666666666674%22%20width%3D%22150%22%20height%3D%2243.33333333333336%22%20as%3D%22geometry%22%3E%3CmxRectangle%20width%3D%22150%22%20height%3D%2230%22%20as%3D%22alternateBounds%22%2F%3E%3C%2FmxGeometry%3E%3C%2FmxCell%3E%3C%2Froot%3E%3C%2FmxGraphModel%3E&lt;/span&gt;" style="shape=partialRectangle;connectable=0;fillColor=none;top=0;left=0;bottom=0;right=0;editable=1;overflow=hidden;whiteSpace=wrap;html=1;" parent="GASi60yf1O-cEDSjTEbu-250" vertex="1">
          <mxGeometry y="256.66666666666674" width="30" height="43.33333333333336" as="geometry">
            <mxRectangle width="30" height="30" as="alternateBounds" />
          </mxGeometry>
        </mxCell>
        <mxCell id="GASi60yf1O-cEDSjTEbu-265" value="" style="endArrow=none;html=1;rounded=0;" parent="GASi60yf1O-cEDSjTEbu-242" edge="1">
          <mxGeometry width="50" height="50" relative="1" as="geometry">
            <mxPoint x="30" y="260.00000000000006" as="sourcePoint" />
            <mxPoint x="30" y="216.6666666666667" as="targetPoint" />
          </mxGeometry>
        </mxCell>
        <mxCell id="GASi60yf1O-cEDSjTEbu-266" value="" style="endArrow=none;html=1;rounded=0;" parent="GASi60yf1O-cEDSjTEbu-241" edge="1">
          <mxGeometry width="50" height="50" relative="1" as="geometry">
            <mxPoint x="30" y="224.54545454545462" as="sourcePoint" />
            <mxPoint x="30" y="177.27272727272725" as="targetPoint" />
          </mxGeometry>
        </mxCell>
        <mxCell id="GASi60yf1O-cEDSjTEbu-267" value="" style="endArrow=none;html=1;rounded=0;" parent="GASi60yf1O-cEDSjTEbu-240" edge="1">
          <mxGeometry width="50" height="50" relative="1" as="geometry">
            <mxPoint x="30" y="180.00000000000003" as="sourcePoint" />
            <mxPoint x="30" y="149.99999999999997" as="targetPoint" />
          </mxGeometry>
        </mxCell>
        <mxCell id="GASi60yf1O-cEDSjTEbu-274" value="" style="endArrow=none;html=1;rounded=0;" parent="GASi60yf1O-cEDSjTEbu-275" edge="1">
          <mxGeometry width="50" height="50" relative="1" as="geometry">
            <mxPoint x="30" y="300" as="sourcePoint" />
            <mxPoint x="30" y="260" as="targetPoint" />
          </mxGeometry>
        </mxCell>
        <mxCell id="GASi60yf1O-cEDSjTEbu-277" value="" style="group" parent="1" vertex="1" connectable="0">
          <mxGeometry x="350" y="110" width="180" height="300.0000000000001" as="geometry" />
        </mxCell>
        <mxCell id="GASi60yf1O-cEDSjTEbu-278" value="" style="group" parent="GASi60yf1O-cEDSjTEbu-277" vertex="1" connectable="0">
          <mxGeometry width="180" height="300.0000000000001" as="geometry" />
        </mxCell>
        <mxCell id="GASi60yf1O-cEDSjTEbu-279" value="" style="shape=tableRow;horizontal=0;startSize=0;swimlaneHead=0;swimlaneBody=0;fillColor=none;collapsible=0;dropTarget=0;points=[[0,0.5],[1,0.5]];portConstraint=eastwest;top=0;left=0;right=0;bottom=0;" parent="GASi60yf1O-cEDSjTEbu-278" vertex="1">
          <mxGeometry y="80" width="180" height="30" as="geometry" />
        </mxCell>
        <mxCell id="GASi60yf1O-cEDSjTEbu-280" value="" style="group" parent="GASi60yf1O-cEDSjTEbu-278" vertex="1" connectable="0">
          <mxGeometry width="180" height="300.0000000000001" as="geometry" />
        </mxCell>
        <mxCell id="GASi60yf1O-cEDSjTEbu-281" value="" style="group" parent="GASi60yf1O-cEDSjTEbu-280" vertex="1" connectable="0">
          <mxGeometry width="180" height="300.0000000000001" as="geometry" />
        </mxCell>
        <mxCell id="GASi60yf1O-cEDSjTEbu-282" value="" style="group" parent="GASi60yf1O-cEDSjTEbu-281" vertex="1" connectable="0">
          <mxGeometry width="180" height="300.0000000000001" as="geometry" />
        </mxCell>
        <mxCell id="GASi60yf1O-cEDSjTEbu-283" value="" style="group" parent="GASi60yf1O-cEDSjTEbu-282" vertex="1" connectable="0">
          <mxGeometry width="180" height="300.0000000000001" as="geometry" />
        </mxCell>
        <mxCell id="GASi60yf1O-cEDSjTEbu-284" value="" style="group" parent="GASi60yf1O-cEDSjTEbu-283" vertex="1" connectable="0">
          <mxGeometry width="180" height="300.0000000000001" as="geometry" />
        </mxCell>
        <mxCell id="GASi60yf1O-cEDSjTEbu-285" value="ResumeLink: string" style="shape=partialRectangle;connectable=0;fillColor=none;top=0;left=0;bottom=0;right=0;align=left;spacingLeft=6;overflow=hidden;whiteSpace=wrap;html=1;" parent="GASi60yf1O-cEDSjTEbu-284" vertex="1">
          <mxGeometry x="30" y="216.6666666666667" width="150" height="43.33333333333336" as="geometry">
            <mxRectangle width="150" height="30" as="alternateBounds" />
          </mxGeometry>
        </mxCell>
        <mxCell id="GASi60yf1O-cEDSjTEbu-286" value="&lt;span style=&quot;color: rgba(0, 0, 0, 0); font-family: monospace; font-size: 0px; text-align: start; text-wrap: nowrap;&quot;&gt;%3CmxGraphModel%3E%3Croot%3E%3CmxCell%20id%3D%220%22%2F%3E%3CmxCell%20id%3D%221%22%20parent%3D%220%22%2F%3E%3CmxCell%20id%3D%222%22%20value%3D%22Status%3A%20string%22%20style%3D%22shape%3DpartialRectangle%3Bconnectable%3D0%3BfillColor%3Dnone%3Btop%3D0%3Bleft%3D0%3Bbottom%3D0%3Bright%3D0%3Balign%3Dleft%3BspacingLeft%3D6%3Boverflow%3Dhidden%3BwhiteSpace%3Dwrap%3Bhtml%3D1%3B%22%20vertex%3D%221%22%20parent%3D%221%22%3E%3CmxGeometry%20x%3D%2260%22%20y%3D%22326.66666666666674%22%20width%3D%22150%22%20height%3D%2243.33333333333336%22%20as%3D%22geometry%22%3E%3CmxRectangle%20width%3D%22150%22%20height%3D%2230%22%20as%3D%22alternateBounds%22%2F%3E%3C%2FmxGeometry%3E%3C%2FmxCell%3E%3C%2Froot%3E%3C%2FmxGraphModel%3E&lt;/span&gt;" style="shape=partialRectangle;connectable=0;fillColor=none;top=0;left=0;bottom=0;right=0;editable=1;overflow=hidden;whiteSpace=wrap;html=1;" parent="GASi60yf1O-cEDSjTEbu-284" vertex="1">
          <mxGeometry y="216.6666666666667" width="30" height="43.33333333333336" as="geometry">
            <mxRectangle width="30" height="30" as="alternateBounds" />
          </mxGeometry>
        </mxCell>
        <mxCell id="GASi60yf1O-cEDSjTEbu-287" value="" style="group" parent="GASi60yf1O-cEDSjTEbu-284" vertex="1" connectable="0">
          <mxGeometry width="180" height="300.0000000000001" as="geometry" />
        </mxCell>
        <mxCell id="GASi60yf1O-cEDSjTEbu-288" value="" style="shape=partialRectangle;connectable=0;fillColor=none;top=0;left=0;bottom=0;right=0;editable=1;overflow=hidden;whiteSpace=wrap;html=1;" parent="GASi60yf1O-cEDSjTEbu-287" vertex="1">
          <mxGeometry y="181.20818181818183" width="30" height="35.454545454545475" as="geometry">
            <mxRectangle width="30" height="30" as="alternateBounds" />
          </mxGeometry>
        </mxCell>
        <mxCell id="GASi60yf1O-cEDSjTEbu-289" value="Address: string" style="shape=partialRectangle;connectable=0;fillColor=none;top=0;left=0;bottom=0;right=0;align=left;spacingLeft=6;overflow=hidden;whiteSpace=wrap;html=1;" parent="GASi60yf1O-cEDSjTEbu-287" vertex="1">
          <mxGeometry x="30" y="181.20818181818183" width="150" height="35.454545454545475" as="geometry">
            <mxRectangle width="150" height="30" as="alternateBounds" />
          </mxGeometry>
        </mxCell>
        <mxCell id="GASi60yf1O-cEDSjTEbu-290" value="" style="group" parent="GASi60yf1O-cEDSjTEbu-287" vertex="1" connectable="0">
          <mxGeometry width="180" height="300.0000000000001" as="geometry" />
        </mxCell>
        <mxCell id="GASi60yf1O-cEDSjTEbu-291" value="Applicant" style="shape=table;startSize=30;container=1;collapsible=1;childLayout=tableLayout;fixedRows=1;rowLines=0;fontStyle=1;align=center;resizeLast=1;html=1;" parent="GASi60yf1O-cEDSjTEbu-290" vertex="1">
          <mxGeometry width="180" height="300" as="geometry" />
        </mxCell>
        <mxCell id="GASi60yf1O-cEDSjTEbu-292" value="" style="shape=tableRow;horizontal=0;startSize=0;swimlaneHead=0;swimlaneBody=0;fillColor=none;collapsible=0;dropTarget=0;points=[[0,0.5],[1,0.5]];portConstraint=eastwest;top=0;left=0;right=0;bottom=1;" parent="GASi60yf1O-cEDSjTEbu-291" vertex="1">
          <mxGeometry y="30" width="180" height="30" as="geometry" />
        </mxCell>
        <mxCell id="GASi60yf1O-cEDSjTEbu-293" value="PK" style="shape=partialRectangle;connectable=0;fillColor=none;top=0;left=0;bottom=0;right=0;fontStyle=1;overflow=hidden;whiteSpace=wrap;html=1;" parent="GASi60yf1O-cEDSjTEbu-292" vertex="1">
          <mxGeometry width="30" height="30" as="geometry">
            <mxRectangle width="30" height="30" as="alternateBounds" />
          </mxGeometry>
        </mxCell>
        <mxCell id="GASi60yf1O-cEDSjTEbu-294" value="ApplicantID: int" style="shape=partialRectangle;connectable=0;fillColor=none;top=0;left=0;bottom=0;right=0;align=left;spacingLeft=6;fontStyle=5;overflow=hidden;whiteSpace=wrap;html=1;" parent="GASi60yf1O-cEDSjTEbu-292" vertex="1">
          <mxGeometry x="30" width="150" height="30" as="geometry">
            <mxRectangle width="150" height="30" as="alternateBounds" />
          </mxGeometry>
        </mxCell>
        <mxCell id="GASi60yf1O-cEDSjTEbu-295" value="" style="shape=tableRow;horizontal=0;startSize=0;swimlaneHead=0;swimlaneBody=0;fillColor=none;collapsible=0;dropTarget=0;points=[[0,0.5],[1,0.5]];portConstraint=eastwest;top=0;left=0;right=0;bottom=0;" parent="GASi60yf1O-cEDSjTEbu-291" vertex="1">
          <mxGeometry y="60" width="180" height="30" as="geometry" />
        </mxCell>
        <mxCell id="GASi60yf1O-cEDSjTEbu-296" value="" style="shape=partialRectangle;connectable=0;fillColor=none;top=0;left=0;bottom=0;right=0;editable=1;overflow=hidden;whiteSpace=wrap;html=1;" parent="GASi60yf1O-cEDSjTEbu-295" vertex="1">
          <mxGeometry width="30" height="30" as="geometry">
            <mxRectangle width="30" height="30" as="alternateBounds" />
          </mxGeometry>
        </mxCell>
        <mxCell id="GASi60yf1O-cEDSjTEbu-297" value="Email: string" style="shape=partialRectangle;connectable=0;fillColor=none;top=0;left=0;bottom=0;right=0;align=left;spacingLeft=6;overflow=hidden;whiteSpace=wrap;html=1;" parent="GASi60yf1O-cEDSjTEbu-295" vertex="1">
          <mxGeometry x="30" width="150" height="30" as="geometry">
            <mxRectangle width="150" height="30" as="alternateBounds" />
          </mxGeometry>
        </mxCell>
        <mxCell id="GASi60yf1O-cEDSjTEbu-298" value="" style="shape=tableRow;horizontal=0;startSize=0;swimlaneHead=0;swimlaneBody=0;fillColor=none;collapsible=0;dropTarget=0;points=[[0,0.5],[1,0.5]];portConstraint=eastwest;top=0;left=0;right=0;bottom=0;" parent="GASi60yf1O-cEDSjTEbu-291" vertex="1">
          <mxGeometry y="90" width="180" height="30" as="geometry" />
        </mxCell>
        <mxCell id="GASi60yf1O-cEDSjTEbu-299" value="" style="shape=partialRectangle;connectable=0;fillColor=none;top=0;left=0;bottom=0;right=0;editable=1;overflow=hidden;whiteSpace=wrap;html=1;" parent="GASi60yf1O-cEDSjTEbu-298" vertex="1">
          <mxGeometry width="30" height="30" as="geometry">
            <mxRectangle width="30" height="30" as="alternateBounds" />
          </mxGeometry>
        </mxCell>
        <mxCell id="GASi60yf1O-cEDSjTEbu-300" value="FirstName: string" style="shape=partialRectangle;connectable=0;fillColor=none;top=0;left=0;bottom=0;right=0;align=left;spacingLeft=6;overflow=hidden;whiteSpace=wrap;html=1;" parent="GASi60yf1O-cEDSjTEbu-298" vertex="1">
          <mxGeometry x="30" width="150" height="30" as="geometry">
            <mxRectangle width="150" height="30" as="alternateBounds" />
          </mxGeometry>
        </mxCell>
        <mxCell id="GASi60yf1O-cEDSjTEbu-301" value="" style="shape=tableRow;horizontal=0;startSize=0;swimlaneHead=0;swimlaneBody=0;fillColor=none;collapsible=0;dropTarget=0;points=[[0,0.5],[1,0.5]];portConstraint=eastwest;top=0;left=0;right=0;bottom=0;" parent="GASi60yf1O-cEDSjTEbu-291" vertex="1">
          <mxGeometry y="120" width="180" height="30" as="geometry" />
        </mxCell>
        <mxCell id="GASi60yf1O-cEDSjTEbu-302" value="" style="shape=partialRectangle;connectable=0;fillColor=none;top=0;left=0;bottom=0;right=0;editable=1;overflow=hidden;whiteSpace=wrap;html=1;" parent="GASi60yf1O-cEDSjTEbu-301" vertex="1">
          <mxGeometry width="30" height="30" as="geometry">
            <mxRectangle width="30" height="30" as="alternateBounds" />
          </mxGeometry>
        </mxCell>
        <mxCell id="GASi60yf1O-cEDSjTEbu-303" value="LastName: string" style="shape=partialRectangle;connectable=0;fillColor=none;top=0;left=0;bottom=0;right=0;align=left;spacingLeft=6;overflow=hidden;whiteSpace=wrap;html=1;" parent="GASi60yf1O-cEDSjTEbu-301" vertex="1">
          <mxGeometry x="30" width="150" height="30" as="geometry">
            <mxRectangle width="150" height="30" as="alternateBounds" />
          </mxGeometry>
        </mxCell>
        <mxCell id="GASi60yf1O-cEDSjTEbu-304" value="" style="shape=partialRectangle;connectable=0;fillColor=none;top=0;left=0;bottom=0;right=0;editable=1;overflow=hidden;whiteSpace=wrap;html=1;" parent="GASi60yf1O-cEDSjTEbu-290" vertex="1">
          <mxGeometry y="145.75818181818178" width="30" height="35.454545454545475" as="geometry">
            <mxRectangle width="30" height="30" as="alternateBounds" />
          </mxGeometry>
        </mxCell>
        <mxCell id="GASi60yf1O-cEDSjTEbu-305" value="Phone: string" style="shape=partialRectangle;connectable=0;fillColor=none;top=0;left=0;bottom=0;right=0;align=left;spacingLeft=6;overflow=hidden;whiteSpace=wrap;html=1;" parent="GASi60yf1O-cEDSjTEbu-290" vertex="1">
          <mxGeometry x="30" y="147.11863636363637" width="150" height="34.0909090909091" as="geometry">
            <mxRectangle width="150" height="30" as="alternateBounds" />
          </mxGeometry>
        </mxCell>
        <mxCell id="GASi60yf1O-cEDSjTEbu-306" value="RegistrationDate: date" style="shape=partialRectangle;connectable=0;fillColor=none;top=0;left=0;bottom=0;right=0;align=left;spacingLeft=6;overflow=hidden;whiteSpace=wrap;html=1;" parent="GASi60yf1O-cEDSjTEbu-290" vertex="1">
          <mxGeometry x="30" y="256.66666666666674" width="150" height="43.33333333333336" as="geometry">
            <mxRectangle width="150" height="30" as="alternateBounds" />
          </mxGeometry>
        </mxCell>
        <mxCell id="GASi60yf1O-cEDSjTEbu-307" value="&lt;span style=&quot;color: rgba(0, 0, 0, 0); font-family: monospace; font-size: 0px; text-align: start; text-wrap: nowrap;&quot;&gt;%3CmxGraphModel%3E%3Croot%3E%3CmxCell%20id%3D%220%22%2F%3E%3CmxCell%20id%3D%221%22%20parent%3D%220%22%2F%3E%3CmxCell%20id%3D%222%22%20value%3D%22Status%3A%20string%22%20style%3D%22shape%3DpartialRectangle%3Bconnectable%3D0%3BfillColor%3Dnone%3Btop%3D0%3Bleft%3D0%3Bbottom%3D0%3Bright%3D0%3Balign%3Dleft%3BspacingLeft%3D6%3Boverflow%3Dhidden%3BwhiteSpace%3Dwrap%3Bhtml%3D1%3B%22%20vertex%3D%221%22%20parent%3D%221%22%3E%3CmxGeometry%20x%3D%2260%22%20y%3D%22326.66666666666674%22%20width%3D%22150%22%20height%3D%2243.33333333333336%22%20as%3D%22geometry%22%3E%3CmxRectangle%20width%3D%22150%22%20height%3D%2230%22%20as%3D%22alternateBounds%22%2F%3E%3C%2FmxGeometry%3E%3C%2FmxCell%3E%3C%2Froot%3E%3C%2FmxGraphModel%3E&lt;/span&gt;" style="shape=partialRectangle;connectable=0;fillColor=none;top=0;left=0;bottom=0;right=0;editable=1;overflow=hidden;whiteSpace=wrap;html=1;" parent="GASi60yf1O-cEDSjTEbu-290" vertex="1">
          <mxGeometry y="256.66666666666674" width="30" height="43.33333333333336" as="geometry">
            <mxRectangle width="30" height="30" as="alternateBounds" />
          </mxGeometry>
        </mxCell>
        <mxCell id="GASi60yf1O-cEDSjTEbu-308" value="" style="endArrow=none;html=1;rounded=0;" parent="GASi60yf1O-cEDSjTEbu-282" edge="1">
          <mxGeometry width="50" height="50" relative="1" as="geometry">
            <mxPoint x="30" y="260.00000000000006" as="sourcePoint" />
            <mxPoint x="30" y="216.6666666666667" as="targetPoint" />
          </mxGeometry>
        </mxCell>
        <mxCell id="GASi60yf1O-cEDSjTEbu-309" value="" style="endArrow=none;html=1;rounded=0;" parent="GASi60yf1O-cEDSjTEbu-281" edge="1">
          <mxGeometry width="50" height="50" relative="1" as="geometry">
            <mxPoint x="30" y="224.54545454545462" as="sourcePoint" />
            <mxPoint x="30" y="177.27272727272725" as="targetPoint" />
          </mxGeometry>
        </mxCell>
        <mxCell id="GASi60yf1O-cEDSjTEbu-310" value="" style="endArrow=none;html=1;rounded=0;" parent="GASi60yf1O-cEDSjTEbu-280" edge="1">
          <mxGeometry width="50" height="50" relative="1" as="geometry">
            <mxPoint x="30" y="180.00000000000003" as="sourcePoint" />
            <mxPoint x="30" y="149.99999999999997" as="targetPoint" />
          </mxGeometry>
        </mxCell>
        <mxCell id="GASi60yf1O-cEDSjTEbu-311" value="" style="endArrow=none;html=1;rounded=0;" parent="GASi60yf1O-cEDSjTEbu-277" edge="1">
          <mxGeometry width="50" height="50" relative="1" as="geometry">
            <mxPoint x="30" y="300" as="sourcePoint" />
            <mxPoint x="30" y="260" as="targetPoint" />
          </mxGeometry>
        </mxCell>
        <mxCell id="GASi60yf1O-cEDSjTEbu-525" style="edgeStyle=orthogonalEdgeStyle;rounded=0;orthogonalLoop=1;jettySize=auto;html=1;entryX=0.991;entryY=-0.011;entryDx=0;entryDy=0;entryPerimeter=0;endArrow=ERmandOne;endFill=0;startArrow=ERoneToMany;startFill=0;" parent="1" source="GASi60yf1O-cEDSjTEbu-325" target="GASi60yf1O-cEDSjTEbu-355" edge="1">
          <mxGeometry relative="1" as="geometry">
            <Array as="points">
              <mxPoint x="920" y="185" />
              <mxPoint x="920" y="605" />
            </Array>
          </mxGeometry>
        </mxCell>
        <mxCell id="GASi60yf1O-cEDSjTEbu-526" value="conducts" style="edgeLabel;html=1;align=center;verticalAlign=middle;resizable=0;points=[];" parent="GASi60yf1O-cEDSjTEbu-525" vertex="1" connectable="0">
          <mxGeometry x="0.1519" relative="1" as="geometry">
            <mxPoint as="offset" />
          </mxGeometry>
        </mxCell>
        <mxCell id="GASi60yf1O-cEDSjTEbu-325" value="InterviewPanelAssignment" style="shape=table;startSize=30;container=1;collapsible=1;childLayout=tableLayout;fixedRows=1;rowLines=0;fontStyle=1;align=center;resizeLast=1;html=1;" parent="1" vertex="1">
          <mxGeometry x="660" y="110" width="180" height="180" as="geometry" />
        </mxCell>
        <mxCell id="GASi60yf1O-cEDSjTEbu-326" value="" style="shape=tableRow;horizontal=0;startSize=0;swimlaneHead=0;swimlaneBody=0;fillColor=none;collapsible=0;dropTarget=0;points=[[0,0.5],[1,0.5]];portConstraint=eastwest;top=0;left=0;right=0;bottom=1;" parent="GASi60yf1O-cEDSjTEbu-325" vertex="1">
          <mxGeometry y="30" width="180" height="30" as="geometry" />
        </mxCell>
        <mxCell id="GASi60yf1O-cEDSjTEbu-327" value="PK" style="shape=partialRectangle;connectable=0;fillColor=none;top=0;left=0;bottom=0;right=0;fontStyle=1;overflow=hidden;whiteSpace=wrap;html=1;" parent="GASi60yf1O-cEDSjTEbu-326" vertex="1">
          <mxGeometry width="30" height="30" as="geometry">
            <mxRectangle width="30" height="30" as="alternateBounds" />
          </mxGeometry>
        </mxCell>
        <mxCell id="GASi60yf1O-cEDSjTEbu-328" value="AssignmentID: int" style="shape=partialRectangle;connectable=0;fillColor=none;top=0;left=0;bottom=0;right=0;align=left;spacingLeft=6;fontStyle=5;overflow=hidden;whiteSpace=wrap;html=1;" parent="GASi60yf1O-cEDSjTEbu-326" vertex="1">
          <mxGeometry x="30" width="150" height="30" as="geometry">
            <mxRectangle width="150" height="30" as="alternateBounds" />
          </mxGeometry>
        </mxCell>
        <mxCell id="GASi60yf1O-cEDSjTEbu-329" value="" style="shape=tableRow;horizontal=0;startSize=0;swimlaneHead=0;swimlaneBody=0;fillColor=none;collapsible=0;dropTarget=0;points=[[0,0.5],[1,0.5]];portConstraint=eastwest;top=0;left=0;right=0;bottom=0;" parent="GASi60yf1O-cEDSjTEbu-325" vertex="1">
          <mxGeometry y="60" width="180" height="30" as="geometry" />
        </mxCell>
        <mxCell id="GASi60yf1O-cEDSjTEbu-330" value="&lt;b&gt;FK&lt;/b&gt;" style="shape=partialRectangle;connectable=0;fillColor=none;top=0;left=0;bottom=0;right=0;editable=1;overflow=hidden;whiteSpace=wrap;html=1;" parent="GASi60yf1O-cEDSjTEbu-329" vertex="1">
          <mxGeometry width="30" height="30" as="geometry">
            <mxRectangle width="30" height="30" as="alternateBounds" />
          </mxGeometry>
        </mxCell>
        <mxCell id="GASi60yf1O-cEDSjTEbu-331" value="InterviewID: int" style="shape=partialRectangle;connectable=0;fillColor=none;top=0;left=0;bottom=0;right=0;align=left;spacingLeft=6;overflow=hidden;whiteSpace=wrap;html=1;" parent="GASi60yf1O-cEDSjTEbu-329" vertex="1">
          <mxGeometry x="30" width="150" height="30" as="geometry">
            <mxRectangle width="150" height="30" as="alternateBounds" />
          </mxGeometry>
        </mxCell>
        <mxCell id="euBnFJcf-Pppdy-fU70u-3" value="" style="shape=tableRow;horizontal=0;startSize=0;swimlaneHead=0;swimlaneBody=0;fillColor=none;collapsible=0;dropTarget=0;points=[[0,0.5],[1,0.5]];portConstraint=eastwest;top=0;left=0;right=0;bottom=0;" vertex="1" parent="GASi60yf1O-cEDSjTEbu-325">
          <mxGeometry y="90" width="180" height="30" as="geometry" />
        </mxCell>
        <mxCell id="euBnFJcf-Pppdy-fU70u-4" value="&lt;b&gt;FK&lt;/b&gt;" style="shape=partialRectangle;connectable=0;fillColor=none;top=0;left=0;bottom=0;right=0;editable=1;overflow=hidden;whiteSpace=wrap;html=1;" vertex="1" parent="euBnFJcf-Pppdy-fU70u-3">
          <mxGeometry width="30" height="30" as="geometry">
            <mxRectangle width="30" height="30" as="alternateBounds" />
          </mxGeometry>
        </mxCell>
        <mxCell id="euBnFJcf-Pppdy-fU70u-5" value="InterviewID: int" style="shape=partialRectangle;connectable=0;fillColor=none;top=0;left=0;bottom=0;right=0;align=left;spacingLeft=6;overflow=hidden;whiteSpace=wrap;html=1;" vertex="1" parent="euBnFJcf-Pppdy-fU70u-3">
          <mxGeometry x="30" width="150" height="30" as="geometry">
            <mxRectangle width="150" height="30" as="alternateBounds" />
          </mxGeometry>
        </mxCell>
        <mxCell id="GASi60yf1O-cEDSjTEbu-332" value="" style="shape=tableRow;horizontal=0;startSize=0;swimlaneHead=0;swimlaneBody=0;fillColor=none;collapsible=0;dropTarget=0;points=[[0,0.5],[1,0.5]];portConstraint=eastwest;top=0;left=0;right=0;bottom=0;" parent="GASi60yf1O-cEDSjTEbu-325" vertex="1">
          <mxGeometry y="120" width="180" height="30" as="geometry" />
        </mxCell>
        <mxCell id="GASi60yf1O-cEDSjTEbu-333" value="&lt;b&gt;FK&lt;/b&gt;" style="shape=partialRectangle;connectable=0;fillColor=none;top=0;left=0;bottom=0;right=0;editable=1;overflow=hidden;whiteSpace=wrap;html=1;" parent="GASi60yf1O-cEDSjTEbu-332" vertex="1">
          <mxGeometry width="30" height="30" as="geometry">
            <mxRectangle width="30" height="30" as="alternateBounds" />
          </mxGeometry>
        </mxCell>
        <mxCell id="GASi60yf1O-cEDSjTEbu-334" value="PanelistID: int" style="shape=partialRectangle;connectable=0;fillColor=none;top=0;left=0;bottom=0;right=0;align=left;spacingLeft=6;overflow=hidden;whiteSpace=wrap;html=1;" parent="GASi60yf1O-cEDSjTEbu-332" vertex="1">
          <mxGeometry x="30" width="150" height="30" as="geometry">
            <mxRectangle width="150" height="30" as="alternateBounds" />
          </mxGeometry>
        </mxCell>
        <mxCell id="GASi60yf1O-cEDSjTEbu-335" value="" style="shape=tableRow;horizontal=0;startSize=0;swimlaneHead=0;swimlaneBody=0;fillColor=none;collapsible=0;dropTarget=0;points=[[0,0.5],[1,0.5]];portConstraint=eastwest;top=0;left=0;right=0;bottom=0;" parent="GASi60yf1O-cEDSjTEbu-325" vertex="1">
          <mxGeometry y="150" width="180" height="30" as="geometry" />
        </mxCell>
        <mxCell id="GASi60yf1O-cEDSjTEbu-336" value="" style="shape=partialRectangle;connectable=0;fillColor=none;top=0;left=0;bottom=0;right=0;editable=1;overflow=hidden;whiteSpace=wrap;html=1;" parent="GASi60yf1O-cEDSjTEbu-335" vertex="1">
          <mxGeometry width="30" height="30" as="geometry">
            <mxRectangle width="30" height="30" as="alternateBounds" />
          </mxGeometry>
        </mxCell>
        <mxCell id="GASi60yf1O-cEDSjTEbu-337" value="Role: string" style="shape=partialRectangle;connectable=0;fillColor=none;top=0;left=0;bottom=0;right=0;align=left;spacingLeft=6;overflow=hidden;whiteSpace=wrap;html=1;" parent="GASi60yf1O-cEDSjTEbu-335" vertex="1">
          <mxGeometry x="30" width="150" height="30" as="geometry">
            <mxRectangle width="150" height="30" as="alternateBounds" />
          </mxGeometry>
        </mxCell>
        <mxCell id="GASi60yf1O-cEDSjTEbu-351" value="Interview" style="shape=table;startSize=30;container=1;collapsible=1;childLayout=tableLayout;fixedRows=1;rowLines=0;fontStyle=1;align=center;resizeLast=1;html=1;" parent="1" vertex="1">
          <mxGeometry x="660" y="545" width="180" height="150" as="geometry" />
        </mxCell>
        <mxCell id="GASi60yf1O-cEDSjTEbu-352" value="" style="shape=tableRow;horizontal=0;startSize=0;swimlaneHead=0;swimlaneBody=0;fillColor=none;collapsible=0;dropTarget=0;points=[[0,0.5],[1,0.5]];portConstraint=eastwest;top=0;left=0;right=0;bottom=1;" parent="GASi60yf1O-cEDSjTEbu-351" vertex="1">
          <mxGeometry y="30" width="180" height="30" as="geometry" />
        </mxCell>
        <mxCell id="GASi60yf1O-cEDSjTEbu-353" value="PK" style="shape=partialRectangle;connectable=0;fillColor=none;top=0;left=0;bottom=0;right=0;fontStyle=1;overflow=hidden;whiteSpace=wrap;html=1;" parent="GASi60yf1O-cEDSjTEbu-352" vertex="1">
          <mxGeometry width="30" height="30" as="geometry">
            <mxRectangle width="30" height="30" as="alternateBounds" />
          </mxGeometry>
        </mxCell>
        <mxCell id="GASi60yf1O-cEDSjTEbu-354" value="InterviewID: int" style="shape=partialRectangle;connectable=0;fillColor=none;top=0;left=0;bottom=0;right=0;align=left;spacingLeft=6;fontStyle=5;overflow=hidden;whiteSpace=wrap;html=1;" parent="GASi60yf1O-cEDSjTEbu-352" vertex="1">
          <mxGeometry x="30" width="150" height="30" as="geometry">
            <mxRectangle width="150" height="30" as="alternateBounds" />
          </mxGeometry>
        </mxCell>
        <mxCell id="GASi60yf1O-cEDSjTEbu-355" value="" style="shape=tableRow;horizontal=0;startSize=0;swimlaneHead=0;swimlaneBody=0;fillColor=none;collapsible=0;dropTarget=0;points=[[0,0.5],[1,0.5]];portConstraint=eastwest;top=0;left=0;right=0;bottom=0;" parent="GASi60yf1O-cEDSjTEbu-351" vertex="1">
          <mxGeometry y="60" width="180" height="30" as="geometry" />
        </mxCell>
        <mxCell id="GASi60yf1O-cEDSjTEbu-356" value="&lt;b&gt;FK&lt;/b&gt;" style="shape=partialRectangle;connectable=0;fillColor=none;top=0;left=0;bottom=0;right=0;editable=1;overflow=hidden;whiteSpace=wrap;html=1;" parent="GASi60yf1O-cEDSjTEbu-355" vertex="1">
          <mxGeometry width="30" height="30" as="geometry">
            <mxRectangle width="30" height="30" as="alternateBounds" />
          </mxGeometry>
        </mxCell>
        <mxCell id="GASi60yf1O-cEDSjTEbu-357" value="ApplicationID: int" style="shape=partialRectangle;connectable=0;fillColor=none;top=0;left=0;bottom=0;right=0;align=left;spacingLeft=6;overflow=hidden;whiteSpace=wrap;html=1;" parent="GASi60yf1O-cEDSjTEbu-355" vertex="1">
          <mxGeometry x="30" width="150" height="30" as="geometry">
            <mxRectangle width="150" height="30" as="alternateBounds" />
          </mxGeometry>
        </mxCell>
        <mxCell id="GASi60yf1O-cEDSjTEbu-358" value="" style="shape=tableRow;horizontal=0;startSize=0;swimlaneHead=0;swimlaneBody=0;fillColor=none;collapsible=0;dropTarget=0;points=[[0,0.5],[1,0.5]];portConstraint=eastwest;top=0;left=0;right=0;bottom=0;" parent="GASi60yf1O-cEDSjTEbu-351" vertex="1">
          <mxGeometry y="90" width="180" height="30" as="geometry" />
        </mxCell>
        <mxCell id="GASi60yf1O-cEDSjTEbu-359" value="" style="shape=partialRectangle;connectable=0;fillColor=none;top=0;left=0;bottom=0;right=0;editable=1;overflow=hidden;whiteSpace=wrap;html=1;" parent="GASi60yf1O-cEDSjTEbu-358" vertex="1">
          <mxGeometry width="30" height="30" as="geometry">
            <mxRectangle width="30" height="30" as="alternateBounds" />
          </mxGeometry>
        </mxCell>
        <mxCell id="GASi60yf1O-cEDSjTEbu-360" value="Type: string" style="shape=partialRectangle;connectable=0;fillColor=none;top=0;left=0;bottom=0;right=0;align=left;spacingLeft=6;overflow=hidden;whiteSpace=wrap;html=1;" parent="GASi60yf1O-cEDSjTEbu-358" vertex="1">
          <mxGeometry x="30" width="150" height="30" as="geometry">
            <mxRectangle width="150" height="30" as="alternateBounds" />
          </mxGeometry>
        </mxCell>
        <mxCell id="GASi60yf1O-cEDSjTEbu-361" value="" style="shape=tableRow;horizontal=0;startSize=0;swimlaneHead=0;swimlaneBody=0;fillColor=none;collapsible=0;dropTarget=0;points=[[0,0.5],[1,0.5]];portConstraint=eastwest;top=0;left=0;right=0;bottom=0;" parent="GASi60yf1O-cEDSjTEbu-351" vertex="1">
          <mxGeometry y="120" width="180" height="30" as="geometry" />
        </mxCell>
        <mxCell id="GASi60yf1O-cEDSjTEbu-362" value="" style="shape=partialRectangle;connectable=0;fillColor=none;top=0;left=0;bottom=0;right=0;editable=1;overflow=hidden;whiteSpace=wrap;html=1;" parent="GASi60yf1O-cEDSjTEbu-361" vertex="1">
          <mxGeometry width="30" height="30" as="geometry">
            <mxRectangle width="30" height="30" as="alternateBounds" />
          </mxGeometry>
        </mxCell>
        <mxCell id="GASi60yf1O-cEDSjTEbu-363" value="Status: string" style="shape=partialRectangle;connectable=0;fillColor=none;top=0;left=0;bottom=0;right=0;align=left;spacingLeft=6;overflow=hidden;whiteSpace=wrap;html=1;" parent="GASi60yf1O-cEDSjTEbu-361" vertex="1">
          <mxGeometry x="30" width="150" height="30" as="geometry">
            <mxRectangle width="150" height="30" as="alternateBounds" />
          </mxGeometry>
        </mxCell>
        <mxCell id="GASi60yf1O-cEDSjTEbu-364" value="" style="group" parent="1" vertex="1" connectable="0">
          <mxGeometry x="350" y="490" width="180" height="260" as="geometry" />
        </mxCell>
        <mxCell id="GASi60yf1O-cEDSjTEbu-365" value="" style="group" parent="GASi60yf1O-cEDSjTEbu-364" vertex="1" connectable="0">
          <mxGeometry width="180" height="260" as="geometry" />
        </mxCell>
        <mxCell id="GASi60yf1O-cEDSjTEbu-366" value="" style="group" parent="GASi60yf1O-cEDSjTEbu-365" vertex="1" connectable="0">
          <mxGeometry width="180" height="260.00000000000006" as="geometry" />
        </mxCell>
        <mxCell id="GASi60yf1O-cEDSjTEbu-367" value="" style="group" parent="GASi60yf1O-cEDSjTEbu-366" vertex="1" connectable="0">
          <mxGeometry width="180" height="260.00000000000006" as="geometry" />
        </mxCell>
        <mxCell id="GASi60yf1O-cEDSjTEbu-368" value="" style="group" parent="GASi60yf1O-cEDSjTEbu-367" vertex="1" connectable="0">
          <mxGeometry width="180" height="260.00000000000006" as="geometry" />
        </mxCell>
        <mxCell id="GASi60yf1O-cEDSjTEbu-369" value="Status: string" style="shape=partialRectangle;connectable=0;fillColor=none;top=0;left=0;bottom=0;right=0;align=left;spacingLeft=6;overflow=hidden;whiteSpace=wrap;html=1;" parent="GASi60yf1O-cEDSjTEbu-368" vertex="1">
          <mxGeometry x="30" y="216.66666666666669" width="150" height="43.33333333333335" as="geometry">
            <mxRectangle width="150" height="30" as="alternateBounds" />
          </mxGeometry>
        </mxCell>
        <mxCell id="GASi60yf1O-cEDSjTEbu-370" value="" style="shape=partialRectangle;connectable=0;fillColor=none;top=0;left=0;bottom=0;right=0;editable=1;overflow=hidden;whiteSpace=wrap;html=1;" parent="GASi60yf1O-cEDSjTEbu-368" vertex="1">
          <mxGeometry y="216.66666666666669" width="30" height="43.33333333333335" as="geometry">
            <mxRectangle width="30" height="30" as="alternateBounds" />
          </mxGeometry>
        </mxCell>
        <mxCell id="GASi60yf1O-cEDSjTEbu-371" value="" style="group" parent="GASi60yf1O-cEDSjTEbu-368" vertex="1" connectable="0">
          <mxGeometry width="180" height="260.00000000000006" as="geometry" />
        </mxCell>
        <mxCell id="GASi60yf1O-cEDSjTEbu-372" value="" style="shape=partialRectangle;connectable=0;fillColor=none;top=0;left=0;bottom=0;right=0;editable=1;overflow=hidden;whiteSpace=wrap;html=1;" parent="GASi60yf1O-cEDSjTEbu-371" vertex="1">
          <mxGeometry y="181.20818181818183" width="30" height="35.45454545454547" as="geometry">
            <mxRectangle width="30" height="30" as="alternateBounds" />
          </mxGeometry>
        </mxCell>
        <mxCell id="GASi60yf1O-cEDSjTEbu-373" value="ReferralDate: date" style="shape=partialRectangle;connectable=0;fillColor=none;top=0;left=0;bottom=0;right=0;align=left;spacingLeft=6;overflow=hidden;whiteSpace=wrap;html=1;" parent="GASi60yf1O-cEDSjTEbu-371" vertex="1">
          <mxGeometry x="30" y="181.20818181818183" width="150" height="35.45454545454547" as="geometry">
            <mxRectangle width="150" height="30" as="alternateBounds" />
          </mxGeometry>
        </mxCell>
        <mxCell id="GASi60yf1O-cEDSjTEbu-374" value="" style="group" parent="GASi60yf1O-cEDSjTEbu-371" vertex="1" connectable="0">
          <mxGeometry width="180" height="260.00000000000006" as="geometry" />
        </mxCell>
        <mxCell id="GASi60yf1O-cEDSjTEbu-375" value="" style="shape=partialRectangle;connectable=0;fillColor=none;top=0;left=0;bottom=0;right=0;editable=1;overflow=hidden;whiteSpace=wrap;html=1;" parent="GASi60yf1O-cEDSjTEbu-374" vertex="1">
          <mxGeometry y="145.75818181818178" width="30" height="35.45454545454547" as="geometry">
            <mxRectangle width="30" height="30" as="alternateBounds" />
          </mxGeometry>
        </mxCell>
        <mxCell id="GASi60yf1O-cEDSjTEbu-376" value="" style="group" parent="GASi60yf1O-cEDSjTEbu-374" vertex="1" connectable="0">
          <mxGeometry width="180" height="260.00000000000006" as="geometry" />
        </mxCell>
        <mxCell id="GASi60yf1O-cEDSjTEbu-377" value="Referral" style="shape=table;startSize=30;container=1;collapsible=1;childLayout=tableLayout;fixedRows=1;rowLines=0;fontStyle=1;align=center;resizeLast=1;html=1;" parent="GASi60yf1O-cEDSjTEbu-376" vertex="1">
          <mxGeometry width="180" height="260.00000000000006" as="geometry" />
        </mxCell>
        <mxCell id="GASi60yf1O-cEDSjTEbu-378" value="" style="shape=tableRow;horizontal=0;startSize=0;swimlaneHead=0;swimlaneBody=0;fillColor=none;collapsible=0;dropTarget=0;points=[[0,0.5],[1,0.5]];portConstraint=eastwest;top=0;left=0;right=0;bottom=1;" parent="GASi60yf1O-cEDSjTEbu-377" vertex="1">
          <mxGeometry y="30" width="180" height="30" as="geometry" />
        </mxCell>
        <mxCell id="GASi60yf1O-cEDSjTEbu-379" value="PK" style="shape=partialRectangle;connectable=0;fillColor=none;top=0;left=0;bottom=0;right=0;fontStyle=1;overflow=hidden;whiteSpace=wrap;html=1;" parent="GASi60yf1O-cEDSjTEbu-378" vertex="1">
          <mxGeometry width="30" height="30" as="geometry">
            <mxRectangle width="30" height="30" as="alternateBounds" />
          </mxGeometry>
        </mxCell>
        <mxCell id="GASi60yf1O-cEDSjTEbu-380" value="ReferralID: int" style="shape=partialRectangle;connectable=0;fillColor=none;top=0;left=0;bottom=0;right=0;align=left;spacingLeft=6;fontStyle=5;overflow=hidden;whiteSpace=wrap;html=1;" parent="GASi60yf1O-cEDSjTEbu-378" vertex="1">
          <mxGeometry x="30" width="150" height="30" as="geometry">
            <mxRectangle width="150" height="30" as="alternateBounds" />
          </mxGeometry>
        </mxCell>
        <mxCell id="GASi60yf1O-cEDSjTEbu-381" value="" style="shape=tableRow;horizontal=0;startSize=0;swimlaneHead=0;swimlaneBody=0;fillColor=none;collapsible=0;dropTarget=0;points=[[0,0.5],[1,0.5]];portConstraint=eastwest;top=0;left=0;right=0;bottom=0;" parent="GASi60yf1O-cEDSjTEbu-377" vertex="1">
          <mxGeometry y="60" width="180" height="30" as="geometry" />
        </mxCell>
        <mxCell id="GASi60yf1O-cEDSjTEbu-382" value="&lt;b&gt;FK&lt;/b&gt;" style="shape=partialRectangle;connectable=0;fillColor=none;top=0;left=0;bottom=0;right=0;editable=1;overflow=hidden;whiteSpace=wrap;html=1;" parent="GASi60yf1O-cEDSjTEbu-381" vertex="1">
          <mxGeometry width="30" height="30" as="geometry">
            <mxRectangle width="30" height="30" as="alternateBounds" />
          </mxGeometry>
        </mxCell>
        <mxCell id="GASi60yf1O-cEDSjTEbu-383" value="ApplicantID: int" style="shape=partialRectangle;connectable=0;fillColor=none;top=0;left=0;bottom=0;right=0;align=left;spacingLeft=6;overflow=hidden;whiteSpace=wrap;html=1;" parent="GASi60yf1O-cEDSjTEbu-381" vertex="1">
          <mxGeometry x="30" width="150" height="30" as="geometry">
            <mxRectangle width="150" height="30" as="alternateBounds" />
          </mxGeometry>
        </mxCell>
        <mxCell id="GASi60yf1O-cEDSjTEbu-384" value="" style="shape=tableRow;horizontal=0;startSize=0;swimlaneHead=0;swimlaneBody=0;fillColor=none;collapsible=0;dropTarget=0;points=[[0,0.5],[1,0.5]];portConstraint=eastwest;top=0;left=0;right=0;bottom=0;" parent="GASi60yf1O-cEDSjTEbu-377" vertex="1">
          <mxGeometry y="90" width="180" height="30" as="geometry" />
        </mxCell>
        <mxCell id="GASi60yf1O-cEDSjTEbu-385" value="" style="shape=partialRectangle;connectable=0;fillColor=none;top=0;left=0;bottom=0;right=0;editable=1;overflow=hidden;whiteSpace=wrap;html=1;" parent="GASi60yf1O-cEDSjTEbu-384" vertex="1">
          <mxGeometry width="30" height="30" as="geometry">
            <mxRectangle width="30" height="30" as="alternateBounds" />
          </mxGeometry>
        </mxCell>
        <mxCell id="GASi60yf1O-cEDSjTEbu-386" value="ReferralEmail: string" style="shape=partialRectangle;connectable=0;fillColor=none;top=0;left=0;bottom=0;right=0;align=left;spacingLeft=6;overflow=hidden;whiteSpace=wrap;html=1;" parent="GASi60yf1O-cEDSjTEbu-384" vertex="1">
          <mxGeometry x="30" width="150" height="30" as="geometry">
            <mxRectangle width="150" height="30" as="alternateBounds" />
          </mxGeometry>
        </mxCell>
        <mxCell id="GASi60yf1O-cEDSjTEbu-387" value="" style="shape=tableRow;horizontal=0;startSize=0;swimlaneHead=0;swimlaneBody=0;fillColor=none;collapsible=0;dropTarget=0;points=[[0,0.5],[1,0.5]];portConstraint=eastwest;top=0;left=0;right=0;bottom=0;" parent="GASi60yf1O-cEDSjTEbu-377" vertex="1">
          <mxGeometry y="120" width="180" height="30" as="geometry" />
        </mxCell>
        <mxCell id="GASi60yf1O-cEDSjTEbu-388" value="" style="shape=partialRectangle;connectable=0;fillColor=none;top=0;left=0;bottom=0;right=0;editable=1;overflow=hidden;whiteSpace=wrap;html=1;" parent="GASi60yf1O-cEDSjTEbu-387" vertex="1">
          <mxGeometry width="30" height="30" as="geometry">
            <mxRectangle width="30" height="30" as="alternateBounds" />
          </mxGeometry>
        </mxCell>
        <mxCell id="GASi60yf1O-cEDSjTEbu-389" value="ReferralName: string" style="shape=partialRectangle;connectable=0;fillColor=none;top=0;left=0;bottom=0;right=0;align=left;spacingLeft=6;overflow=hidden;whiteSpace=wrap;html=1;" parent="GASi60yf1O-cEDSjTEbu-387" vertex="1">
          <mxGeometry x="30" width="150" height="30" as="geometry">
            <mxRectangle width="150" height="30" as="alternateBounds" />
          </mxGeometry>
        </mxCell>
        <mxCell id="GASi60yf1O-cEDSjTEbu-390" value="ReferralPhone: string" style="shape=partialRectangle;connectable=0;fillColor=none;top=0;left=0;bottom=0;right=0;align=left;spacingLeft=6;overflow=hidden;whiteSpace=wrap;html=1;" parent="GASi60yf1O-cEDSjTEbu-376" vertex="1">
          <mxGeometry x="30" y="147.11863636363637" width="150" height="34.09090909090909" as="geometry">
            <mxRectangle width="150" height="30" as="alternateBounds" />
          </mxGeometry>
        </mxCell>
        <mxCell id="GASi60yf1O-cEDSjTEbu-391" value="" style="endArrow=none;html=1;rounded=0;" parent="GASi60yf1O-cEDSjTEbu-366" edge="1">
          <mxGeometry width="50" height="50" relative="1" as="geometry">
            <mxPoint x="30" y="260.00000000000006" as="sourcePoint" />
            <mxPoint x="30" y="216.66666666666669" as="targetPoint" />
          </mxGeometry>
        </mxCell>
        <mxCell id="GASi60yf1O-cEDSjTEbu-392" value="" style="endArrow=none;html=1;rounded=0;" parent="GASi60yf1O-cEDSjTEbu-365" edge="1">
          <mxGeometry width="50" height="50" relative="1" as="geometry">
            <mxPoint x="30" y="224.5454545454546" as="sourcePoint" />
            <mxPoint x="30" y="177.27272727272725" as="targetPoint" />
          </mxGeometry>
        </mxCell>
        <mxCell id="GASi60yf1O-cEDSjTEbu-393" value="" style="endArrow=none;html=1;rounded=0;" parent="GASi60yf1O-cEDSjTEbu-364" edge="1">
          <mxGeometry width="50" height="50" relative="1" as="geometry">
            <mxPoint x="30" y="180.00000000000003" as="sourcePoint" />
            <mxPoint x="30" y="149.99999999999997" as="targetPoint" />
          </mxGeometry>
        </mxCell>
        <mxCell id="GASi60yf1O-cEDSjTEbu-395" value="" style="group" parent="1" vertex="1" connectable="0">
          <mxGeometry x="50" y="495" width="180" height="220" as="geometry" />
        </mxCell>
        <mxCell id="GASi60yf1O-cEDSjTEbu-396" value="" style="group" parent="GASi60yf1O-cEDSjTEbu-395" vertex="1" connectable="0">
          <mxGeometry width="180" height="220.00000000000003" as="geometry" />
        </mxCell>
        <mxCell id="GASi60yf1O-cEDSjTEbu-397" value="" style="group" parent="GASi60yf1O-cEDSjTEbu-396" vertex="1" connectable="0">
          <mxGeometry width="180" height="220.00000000000003" as="geometry" />
        </mxCell>
        <mxCell id="GASi60yf1O-cEDSjTEbu-398" value="Status: string" style="shape=partialRectangle;connectable=0;fillColor=none;top=0;left=0;bottom=0;right=0;align=left;spacingLeft=6;overflow=hidden;whiteSpace=wrap;html=1;" parent="GASi60yf1O-cEDSjTEbu-397" vertex="1">
          <mxGeometry x="30" y="183.33333333333334" width="150" height="36.66666666666667" as="geometry">
            <mxRectangle width="150" height="30" as="alternateBounds" />
          </mxGeometry>
        </mxCell>
        <mxCell id="GASi60yf1O-cEDSjTEbu-399" value="" style="shape=partialRectangle;connectable=0;fillColor=none;top=0;left=0;bottom=0;right=0;editable=1;overflow=hidden;whiteSpace=wrap;html=1;" parent="GASi60yf1O-cEDSjTEbu-397" vertex="1">
          <mxGeometry y="183.33333333333334" width="30" height="36.66666666666667" as="geometry">
            <mxRectangle width="30" height="30" as="alternateBounds" />
          </mxGeometry>
        </mxCell>
        <mxCell id="GASi60yf1O-cEDSjTEbu-400" value="" style="group" parent="GASi60yf1O-cEDSjTEbu-397" vertex="1" connectable="0">
          <mxGeometry width="180" height="220.00000000000003" as="geometry" />
        </mxCell>
        <mxCell id="GASi60yf1O-cEDSjTEbu-401" value="Application" style="shape=table;startSize=30;container=1;collapsible=1;childLayout=tableLayout;fixedRows=1;rowLines=0;fontStyle=1;align=center;resizeLast=1;html=1;" parent="GASi60yf1O-cEDSjTEbu-400" vertex="1">
          <mxGeometry width="180" height="220.00000000000003" as="geometry" />
        </mxCell>
        <mxCell id="GASi60yf1O-cEDSjTEbu-402" value="" style="shape=tableRow;horizontal=0;startSize=0;swimlaneHead=0;swimlaneBody=0;fillColor=none;collapsible=0;dropTarget=0;points=[[0,0.5],[1,0.5]];portConstraint=eastwest;top=0;left=0;right=0;bottom=1;" parent="GASi60yf1O-cEDSjTEbu-401" vertex="1">
          <mxGeometry y="30" width="180" height="30" as="geometry" />
        </mxCell>
        <mxCell id="GASi60yf1O-cEDSjTEbu-403" value="PK" style="shape=partialRectangle;connectable=0;fillColor=none;top=0;left=0;bottom=0;right=0;fontStyle=1;overflow=hidden;whiteSpace=wrap;html=1;" parent="GASi60yf1O-cEDSjTEbu-402" vertex="1">
          <mxGeometry width="30" height="30" as="geometry">
            <mxRectangle width="30" height="30" as="alternateBounds" />
          </mxGeometry>
        </mxCell>
        <mxCell id="GASi60yf1O-cEDSjTEbu-404" value="ApplicationID: int" style="shape=partialRectangle;connectable=0;fillColor=none;top=0;left=0;bottom=0;right=0;align=left;spacingLeft=6;fontStyle=5;overflow=hidden;whiteSpace=wrap;html=1;" parent="GASi60yf1O-cEDSjTEbu-402" vertex="1">
          <mxGeometry x="30" width="150" height="30" as="geometry">
            <mxRectangle width="150" height="30" as="alternateBounds" />
          </mxGeometry>
        </mxCell>
        <mxCell id="GASi60yf1O-cEDSjTEbu-405" value="" style="shape=tableRow;horizontal=0;startSize=0;swimlaneHead=0;swimlaneBody=0;fillColor=none;collapsible=0;dropTarget=0;points=[[0,0.5],[1,0.5]];portConstraint=eastwest;top=0;left=0;right=0;bottom=0;" parent="GASi60yf1O-cEDSjTEbu-401" vertex="1">
          <mxGeometry y="60" width="180" height="30" as="geometry" />
        </mxCell>
        <mxCell id="GASi60yf1O-cEDSjTEbu-406" value="&lt;b&gt;FK&lt;/b&gt;" style="shape=partialRectangle;connectable=0;fillColor=none;top=0;left=0;bottom=0;right=0;editable=1;overflow=hidden;whiteSpace=wrap;html=1;" parent="GASi60yf1O-cEDSjTEbu-405" vertex="1">
          <mxGeometry width="30" height="30" as="geometry">
            <mxRectangle width="30" height="30" as="alternateBounds" />
          </mxGeometry>
        </mxCell>
        <mxCell id="GASi60yf1O-cEDSjTEbu-407" value="JobID: int" style="shape=partialRectangle;connectable=0;fillColor=none;top=0;left=0;bottom=0;right=0;align=left;spacingLeft=6;overflow=hidden;whiteSpace=wrap;html=1;" parent="GASi60yf1O-cEDSjTEbu-405" vertex="1">
          <mxGeometry x="30" width="150" height="30" as="geometry">
            <mxRectangle width="150" height="30" as="alternateBounds" />
          </mxGeometry>
        </mxCell>
        <mxCell id="GASi60yf1O-cEDSjTEbu-408" value="" style="shape=tableRow;horizontal=0;startSize=0;swimlaneHead=0;swimlaneBody=0;fillColor=none;collapsible=0;dropTarget=0;points=[[0,0.5],[1,0.5]];portConstraint=eastwest;top=0;left=0;right=0;bottom=0;" parent="GASi60yf1O-cEDSjTEbu-401" vertex="1">
          <mxGeometry y="90" width="180" height="30" as="geometry" />
        </mxCell>
        <mxCell id="GASi60yf1O-cEDSjTEbu-409" value="&lt;b&gt;FK&lt;/b&gt;" style="shape=partialRectangle;connectable=0;fillColor=none;top=0;left=0;bottom=0;right=0;editable=1;overflow=hidden;whiteSpace=wrap;html=1;" parent="GASi60yf1O-cEDSjTEbu-408" vertex="1">
          <mxGeometry width="30" height="30" as="geometry">
            <mxRectangle width="30" height="30" as="alternateBounds" />
          </mxGeometry>
        </mxCell>
        <mxCell id="GASi60yf1O-cEDSjTEbu-410" value="ApplicantID: int" style="shape=partialRectangle;connectable=0;fillColor=none;top=0;left=0;bottom=0;right=0;align=left;spacingLeft=6;overflow=hidden;whiteSpace=wrap;html=1;" parent="GASi60yf1O-cEDSjTEbu-408" vertex="1">
          <mxGeometry x="30" width="150" height="30" as="geometry">
            <mxRectangle width="150" height="30" as="alternateBounds" />
          </mxGeometry>
        </mxCell>
        <mxCell id="GASi60yf1O-cEDSjTEbu-411" value="" style="shape=tableRow;horizontal=0;startSize=0;swimlaneHead=0;swimlaneBody=0;fillColor=none;collapsible=0;dropTarget=0;points=[[0,0.5],[1,0.5]];portConstraint=eastwest;top=0;left=0;right=0;bottom=0;" parent="GASi60yf1O-cEDSjTEbu-401" vertex="1">
          <mxGeometry y="120" width="180" height="30" as="geometry" />
        </mxCell>
        <mxCell id="GASi60yf1O-cEDSjTEbu-412" value="" style="shape=partialRectangle;connectable=0;fillColor=none;top=0;left=0;bottom=0;right=0;editable=1;overflow=hidden;whiteSpace=wrap;html=1;" parent="GASi60yf1O-cEDSjTEbu-411" vertex="1">
          <mxGeometry width="30" height="30" as="geometry">
            <mxRectangle width="30" height="30" as="alternateBounds" />
          </mxGeometry>
        </mxCell>
        <mxCell id="GASi60yf1O-cEDSjTEbu-413" value="SubmissionDate: date" style="shape=partialRectangle;connectable=0;fillColor=none;top=0;left=0;bottom=0;right=0;align=left;spacingLeft=6;overflow=hidden;whiteSpace=wrap;html=1;" parent="GASi60yf1O-cEDSjTEbu-411" vertex="1">
          <mxGeometry x="30" width="150" height="30" as="geometry">
            <mxRectangle width="150" height="30" as="alternateBounds" />
          </mxGeometry>
        </mxCell>
        <mxCell id="GASi60yf1O-cEDSjTEbu-414" value="" style="shape=partialRectangle;connectable=0;fillColor=none;top=0;left=0;bottom=0;right=0;editable=1;overflow=hidden;whiteSpace=wrap;html=1;" parent="GASi60yf1O-cEDSjTEbu-400" vertex="1">
          <mxGeometry y="153.32999999999998" width="30" height="30" as="geometry">
            <mxRectangle width="30" height="30" as="alternateBounds" />
          </mxGeometry>
        </mxCell>
        <mxCell id="GASi60yf1O-cEDSjTEbu-415" value="Source: string" style="shape=partialRectangle;connectable=0;fillColor=none;top=0;left=0;bottom=0;right=0;align=left;spacingLeft=6;overflow=hidden;whiteSpace=wrap;html=1;" parent="GASi60yf1O-cEDSjTEbu-400" vertex="1">
          <mxGeometry x="30" y="153.32999999999998" width="150" height="30" as="geometry">
            <mxRectangle width="150" height="30" as="alternateBounds" />
          </mxGeometry>
        </mxCell>
        <mxCell id="GASi60yf1O-cEDSjTEbu-417" value="" style="endArrow=none;html=1;rounded=0;" parent="GASi60yf1O-cEDSjTEbu-400" edge="1">
          <mxGeometry width="50" height="50" relative="1" as="geometry">
            <mxPoint x="30" y="188.32999999999993" as="sourcePoint" />
            <mxPoint x="30" y="148.32999999999993" as="targetPoint" />
          </mxGeometry>
        </mxCell>
        <mxCell id="GASi60yf1O-cEDSjTEbu-416" value="" style="endArrow=none;html=1;rounded=0;" parent="GASi60yf1O-cEDSjTEbu-395" edge="1">
          <mxGeometry width="50" height="50" relative="1" as="geometry">
            <mxPoint x="30" y="220.00000000000003" as="sourcePoint" />
            <mxPoint x="30" y="183.33333333333334" as="targetPoint" />
          </mxGeometry>
        </mxCell>
        <mxCell id="GASi60yf1O-cEDSjTEbu-418" value="" style="group" parent="1" vertex="1" connectable="0">
          <mxGeometry x="60" y="790" width="180" height="220" as="geometry" />
        </mxCell>
        <mxCell id="GASi60yf1O-cEDSjTEbu-419" value="" style="group" parent="GASi60yf1O-cEDSjTEbu-418" vertex="1" connectable="0">
          <mxGeometry width="180" height="220.00000000000003" as="geometry" />
        </mxCell>
        <mxCell id="GASi60yf1O-cEDSjTEbu-420" value="" style="group" parent="GASi60yf1O-cEDSjTEbu-419" vertex="1" connectable="0">
          <mxGeometry width="180" height="220.00000000000003" as="geometry" />
        </mxCell>
        <mxCell id="GASi60yf1O-cEDSjTEbu-421" value="MeetingLink: string" style="shape=partialRectangle;connectable=0;fillColor=none;top=0;left=0;bottom=0;right=0;align=left;spacingLeft=6;overflow=hidden;whiteSpace=wrap;html=1;" parent="GASi60yf1O-cEDSjTEbu-420" vertex="1">
          <mxGeometry x="30" y="183.33333333333334" width="150" height="36.66666666666667" as="geometry">
            <mxRectangle width="150" height="30" as="alternateBounds" />
          </mxGeometry>
        </mxCell>
        <mxCell id="GASi60yf1O-cEDSjTEbu-422" value="" style="shape=partialRectangle;connectable=0;fillColor=none;top=0;left=0;bottom=0;right=0;editable=1;overflow=hidden;whiteSpace=wrap;html=1;" parent="GASi60yf1O-cEDSjTEbu-420" vertex="1">
          <mxGeometry y="183.33333333333334" width="30" height="36.66666666666667" as="geometry">
            <mxRectangle width="30" height="30" as="alternateBounds" />
          </mxGeometry>
        </mxCell>
        <mxCell id="GASi60yf1O-cEDSjTEbu-423" value="" style="group" parent="GASi60yf1O-cEDSjTEbu-420" vertex="1" connectable="0">
          <mxGeometry width="180" height="220.00000000000003" as="geometry" />
        </mxCell>
        <mxCell id="GASi60yf1O-cEDSjTEbu-424" value="InterviewSchedule" style="shape=table;startSize=30;container=1;collapsible=1;childLayout=tableLayout;fixedRows=1;rowLines=0;fontStyle=1;align=center;resizeLast=1;html=1;" parent="GASi60yf1O-cEDSjTEbu-423" vertex="1">
          <mxGeometry width="180" height="220.00000000000003" as="geometry" />
        </mxCell>
        <mxCell id="GASi60yf1O-cEDSjTEbu-425" value="" style="shape=tableRow;horizontal=0;startSize=0;swimlaneHead=0;swimlaneBody=0;fillColor=none;collapsible=0;dropTarget=0;points=[[0,0.5],[1,0.5]];portConstraint=eastwest;top=0;left=0;right=0;bottom=1;" parent="GASi60yf1O-cEDSjTEbu-424" vertex="1">
          <mxGeometry y="30" width="180" height="30" as="geometry" />
        </mxCell>
        <mxCell id="GASi60yf1O-cEDSjTEbu-426" value="PK" style="shape=partialRectangle;connectable=0;fillColor=none;top=0;left=0;bottom=0;right=0;fontStyle=1;overflow=hidden;whiteSpace=wrap;html=1;" parent="GASi60yf1O-cEDSjTEbu-425" vertex="1">
          <mxGeometry width="30" height="30" as="geometry">
            <mxRectangle width="30" height="30" as="alternateBounds" />
          </mxGeometry>
        </mxCell>
        <mxCell id="GASi60yf1O-cEDSjTEbu-427" value="ScheduleID: int" style="shape=partialRectangle;connectable=0;fillColor=none;top=0;left=0;bottom=0;right=0;align=left;spacingLeft=6;fontStyle=5;overflow=hidden;whiteSpace=wrap;html=1;" parent="GASi60yf1O-cEDSjTEbu-425" vertex="1">
          <mxGeometry x="30" width="150" height="30" as="geometry">
            <mxRectangle width="150" height="30" as="alternateBounds" />
          </mxGeometry>
        </mxCell>
        <mxCell id="GASi60yf1O-cEDSjTEbu-428" value="" style="shape=tableRow;horizontal=0;startSize=0;swimlaneHead=0;swimlaneBody=0;fillColor=none;collapsible=0;dropTarget=0;points=[[0,0.5],[1,0.5]];portConstraint=eastwest;top=0;left=0;right=0;bottom=0;" parent="GASi60yf1O-cEDSjTEbu-424" vertex="1">
          <mxGeometry y="60" width="180" height="30" as="geometry" />
        </mxCell>
        <mxCell id="GASi60yf1O-cEDSjTEbu-429" value="&lt;b&gt;FK&lt;/b&gt;" style="shape=partialRectangle;connectable=0;fillColor=none;top=0;left=0;bottom=0;right=0;editable=1;overflow=hidden;whiteSpace=wrap;html=1;" parent="GASi60yf1O-cEDSjTEbu-428" vertex="1">
          <mxGeometry width="30" height="30" as="geometry">
            <mxRectangle width="30" height="30" as="alternateBounds" />
          </mxGeometry>
        </mxCell>
        <mxCell id="GASi60yf1O-cEDSjTEbu-430" value="InterviewID: int" style="shape=partialRectangle;connectable=0;fillColor=none;top=0;left=0;bottom=0;right=0;align=left;spacingLeft=6;overflow=hidden;whiteSpace=wrap;html=1;" parent="GASi60yf1O-cEDSjTEbu-428" vertex="1">
          <mxGeometry x="30" width="150" height="30" as="geometry">
            <mxRectangle width="150" height="30" as="alternateBounds" />
          </mxGeometry>
        </mxCell>
        <mxCell id="GASi60yf1O-cEDSjTEbu-431" value="" style="shape=tableRow;horizontal=0;startSize=0;swimlaneHead=0;swimlaneBody=0;fillColor=none;collapsible=0;dropTarget=0;points=[[0,0.5],[1,0.5]];portConstraint=eastwest;top=0;left=0;right=0;bottom=0;" parent="GASi60yf1O-cEDSjTEbu-424" vertex="1">
          <mxGeometry y="90" width="180" height="30" as="geometry" />
        </mxCell>
        <mxCell id="GASi60yf1O-cEDSjTEbu-432" value="" style="shape=partialRectangle;connectable=0;fillColor=none;top=0;left=0;bottom=0;right=0;editable=1;overflow=hidden;whiteSpace=wrap;html=1;" parent="GASi60yf1O-cEDSjTEbu-431" vertex="1">
          <mxGeometry width="30" height="30" as="geometry">
            <mxRectangle width="30" height="30" as="alternateBounds" />
          </mxGeometry>
        </mxCell>
        <mxCell id="GASi60yf1O-cEDSjTEbu-433" value="StartTime: date" style="shape=partialRectangle;connectable=0;fillColor=none;top=0;left=0;bottom=0;right=0;align=left;spacingLeft=6;overflow=hidden;whiteSpace=wrap;html=1;" parent="GASi60yf1O-cEDSjTEbu-431" vertex="1">
          <mxGeometry x="30" width="150" height="30" as="geometry">
            <mxRectangle width="150" height="30" as="alternateBounds" />
          </mxGeometry>
        </mxCell>
        <mxCell id="GASi60yf1O-cEDSjTEbu-434" value="" style="shape=tableRow;horizontal=0;startSize=0;swimlaneHead=0;swimlaneBody=0;fillColor=none;collapsible=0;dropTarget=0;points=[[0,0.5],[1,0.5]];portConstraint=eastwest;top=0;left=0;right=0;bottom=0;" parent="GASi60yf1O-cEDSjTEbu-424" vertex="1">
          <mxGeometry y="120" width="180" height="30" as="geometry" />
        </mxCell>
        <mxCell id="GASi60yf1O-cEDSjTEbu-435" value="" style="shape=partialRectangle;connectable=0;fillColor=none;top=0;left=0;bottom=0;right=0;editable=1;overflow=hidden;whiteSpace=wrap;html=1;" parent="GASi60yf1O-cEDSjTEbu-434" vertex="1">
          <mxGeometry width="30" height="30" as="geometry">
            <mxRectangle width="30" height="30" as="alternateBounds" />
          </mxGeometry>
        </mxCell>
        <mxCell id="GASi60yf1O-cEDSjTEbu-436" value="EndTime: date" style="shape=partialRectangle;connectable=0;fillColor=none;top=0;left=0;bottom=0;right=0;align=left;spacingLeft=6;overflow=hidden;whiteSpace=wrap;html=1;" parent="GASi60yf1O-cEDSjTEbu-434" vertex="1">
          <mxGeometry x="30" width="150" height="30" as="geometry">
            <mxRectangle width="150" height="30" as="alternateBounds" />
          </mxGeometry>
        </mxCell>
        <mxCell id="GASi60yf1O-cEDSjTEbu-437" value="" style="shape=partialRectangle;connectable=0;fillColor=none;top=0;left=0;bottom=0;right=0;editable=1;overflow=hidden;whiteSpace=wrap;html=1;" parent="GASi60yf1O-cEDSjTEbu-423" vertex="1">
          <mxGeometry y="153.32999999999998" width="30" height="30" as="geometry">
            <mxRectangle width="30" height="30" as="alternateBounds" />
          </mxGeometry>
        </mxCell>
        <mxCell id="GASi60yf1O-cEDSjTEbu-438" value="Location: string" style="shape=partialRectangle;connectable=0;fillColor=none;top=0;left=0;bottom=0;right=0;align=left;spacingLeft=6;overflow=hidden;whiteSpace=wrap;html=1;" parent="GASi60yf1O-cEDSjTEbu-423" vertex="1">
          <mxGeometry x="30" y="153.32999999999998" width="150" height="30" as="geometry">
            <mxRectangle width="150" height="30" as="alternateBounds" />
          </mxGeometry>
        </mxCell>
        <mxCell id="GASi60yf1O-cEDSjTEbu-439" value="" style="endArrow=none;html=1;rounded=0;" parent="GASi60yf1O-cEDSjTEbu-423" edge="1">
          <mxGeometry width="50" height="50" relative="1" as="geometry">
            <mxPoint x="30" y="188.32999999999993" as="sourcePoint" />
            <mxPoint x="30" y="148.32999999999993" as="targetPoint" />
          </mxGeometry>
        </mxCell>
        <mxCell id="GASi60yf1O-cEDSjTEbu-440" value="" style="endArrow=none;html=1;rounded=0;" parent="GASi60yf1O-cEDSjTEbu-418" edge="1">
          <mxGeometry width="50" height="50" relative="1" as="geometry">
            <mxPoint x="30" y="220.00000000000003" as="sourcePoint" />
            <mxPoint x="30" y="183.33333333333334" as="targetPoint" />
          </mxGeometry>
        </mxCell>
        <mxCell id="GASi60yf1O-cEDSjTEbu-441" value="" style="group" parent="1" vertex="1" connectable="0">
          <mxGeometry x="390" y="890" width="180" height="180" as="geometry" />
        </mxCell>
        <mxCell id="GASi60yf1O-cEDSjTEbu-442" value="" style="group" parent="GASi60yf1O-cEDSjTEbu-441" vertex="1" connectable="0">
          <mxGeometry width="180" height="180" as="geometry" />
        </mxCell>
        <mxCell id="GASi60yf1O-cEDSjTEbu-443" value="" style="group" parent="GASi60yf1O-cEDSjTEbu-442" vertex="1" connectable="0">
          <mxGeometry width="180" height="180.00000000000003" as="geometry" />
        </mxCell>
        <mxCell id="GASi60yf1O-cEDSjTEbu-444" value="" style="group" parent="GASi60yf1O-cEDSjTEbu-443" vertex="1" connectable="0">
          <mxGeometry width="180" height="180.00000000000003" as="geometry" />
        </mxCell>
        <mxCell id="GASi60yf1O-cEDSjTEbu-445" value="" style="group" parent="GASi60yf1O-cEDSjTEbu-444" vertex="1" connectable="0">
          <mxGeometry width="180" height="180.00000000000003" as="geometry" />
        </mxCell>
        <mxCell id="GASi60yf1O-cEDSjTEbu-446" value="HiringDecision" style="shape=table;startSize=30;container=1;collapsible=1;childLayout=tableLayout;fixedRows=1;rowLines=0;fontStyle=1;align=center;resizeLast=1;html=1;" parent="GASi60yf1O-cEDSjTEbu-445" vertex="1">
          <mxGeometry width="180" height="180.00000000000003" as="geometry" />
        </mxCell>
        <mxCell id="GASi60yf1O-cEDSjTEbu-447" value="" style="shape=tableRow;horizontal=0;startSize=0;swimlaneHead=0;swimlaneBody=0;fillColor=none;collapsible=0;dropTarget=0;points=[[0,0.5],[1,0.5]];portConstraint=eastwest;top=0;left=0;right=0;bottom=1;" parent="GASi60yf1O-cEDSjTEbu-446" vertex="1">
          <mxGeometry y="30" width="180" height="30" as="geometry" />
        </mxCell>
        <mxCell id="GASi60yf1O-cEDSjTEbu-448" value="PK" style="shape=partialRectangle;connectable=0;fillColor=none;top=0;left=0;bottom=0;right=0;fontStyle=1;overflow=hidden;whiteSpace=wrap;html=1;" parent="GASi60yf1O-cEDSjTEbu-447" vertex="1">
          <mxGeometry width="30" height="30" as="geometry">
            <mxRectangle width="30" height="30" as="alternateBounds" />
          </mxGeometry>
        </mxCell>
        <mxCell id="GASi60yf1O-cEDSjTEbu-449" value="DecisionID: int" style="shape=partialRectangle;connectable=0;fillColor=none;top=0;left=0;bottom=0;right=0;align=left;spacingLeft=6;fontStyle=5;overflow=hidden;whiteSpace=wrap;html=1;" parent="GASi60yf1O-cEDSjTEbu-447" vertex="1">
          <mxGeometry x="30" width="150" height="30" as="geometry">
            <mxRectangle width="150" height="30" as="alternateBounds" />
          </mxGeometry>
        </mxCell>
        <mxCell id="GASi60yf1O-cEDSjTEbu-450" value="" style="shape=tableRow;horizontal=0;startSize=0;swimlaneHead=0;swimlaneBody=0;fillColor=none;collapsible=0;dropTarget=0;points=[[0,0.5],[1,0.5]];portConstraint=eastwest;top=0;left=0;right=0;bottom=0;" parent="GASi60yf1O-cEDSjTEbu-446" vertex="1">
          <mxGeometry y="60" width="180" height="30" as="geometry" />
        </mxCell>
        <mxCell id="GASi60yf1O-cEDSjTEbu-451" value="&lt;b&gt;FK&lt;/b&gt;" style="shape=partialRectangle;connectable=0;fillColor=none;top=0;left=0;bottom=0;right=0;editable=1;overflow=hidden;whiteSpace=wrap;html=1;" parent="GASi60yf1O-cEDSjTEbu-450" vertex="1">
          <mxGeometry width="30" height="30" as="geometry">
            <mxRectangle width="30" height="30" as="alternateBounds" />
          </mxGeometry>
        </mxCell>
        <mxCell id="GASi60yf1O-cEDSjTEbu-452" value="InterviewID: int" style="shape=partialRectangle;connectable=0;fillColor=none;top=0;left=0;bottom=0;right=0;align=left;spacingLeft=6;overflow=hidden;whiteSpace=wrap;html=1;" parent="GASi60yf1O-cEDSjTEbu-450" vertex="1">
          <mxGeometry x="30" width="150" height="30" as="geometry">
            <mxRectangle width="150" height="30" as="alternateBounds" />
          </mxGeometry>
        </mxCell>
        <mxCell id="GASi60yf1O-cEDSjTEbu-453" value="" style="shape=tableRow;horizontal=0;startSize=0;swimlaneHead=0;swimlaneBody=0;fillColor=none;collapsible=0;dropTarget=0;points=[[0,0.5],[1,0.5]];portConstraint=eastwest;top=0;left=0;right=0;bottom=0;" parent="GASi60yf1O-cEDSjTEbu-446" vertex="1">
          <mxGeometry y="90" width="180" height="30" as="geometry" />
        </mxCell>
        <mxCell id="GASi60yf1O-cEDSjTEbu-454" value="" style="shape=partialRectangle;connectable=0;fillColor=none;top=0;left=0;bottom=0;right=0;editable=1;overflow=hidden;whiteSpace=wrap;html=1;" parent="GASi60yf1O-cEDSjTEbu-453" vertex="1">
          <mxGeometry width="30" height="30" as="geometry">
            <mxRectangle width="30" height="30" as="alternateBounds" />
          </mxGeometry>
        </mxCell>
        <mxCell id="GASi60yf1O-cEDSjTEbu-455" value="Status: string" style="shape=partialRectangle;connectable=0;fillColor=none;top=0;left=0;bottom=0;right=0;align=left;spacingLeft=6;overflow=hidden;whiteSpace=wrap;html=1;" parent="GASi60yf1O-cEDSjTEbu-453" vertex="1">
          <mxGeometry x="30" width="150" height="30" as="geometry">
            <mxRectangle width="150" height="30" as="alternateBounds" />
          </mxGeometry>
        </mxCell>
        <mxCell id="GASi60yf1O-cEDSjTEbu-456" value="" style="shape=tableRow;horizontal=0;startSize=0;swimlaneHead=0;swimlaneBody=0;fillColor=none;collapsible=0;dropTarget=0;points=[[0,0.5],[1,0.5]];portConstraint=eastwest;top=0;left=0;right=0;bottom=0;" parent="GASi60yf1O-cEDSjTEbu-446" vertex="1">
          <mxGeometry y="120" width="180" height="30" as="geometry" />
        </mxCell>
        <mxCell id="GASi60yf1O-cEDSjTEbu-457" value="" style="shape=partialRectangle;connectable=0;fillColor=none;top=0;left=0;bottom=0;right=0;editable=1;overflow=hidden;whiteSpace=wrap;html=1;" parent="GASi60yf1O-cEDSjTEbu-456" vertex="1">
          <mxGeometry width="30" height="30" as="geometry">
            <mxRectangle width="30" height="30" as="alternateBounds" />
          </mxGeometry>
        </mxCell>
        <mxCell id="GASi60yf1O-cEDSjTEbu-458" value="OfferAmount: double" style="shape=partialRectangle;connectable=0;fillColor=none;top=0;left=0;bottom=0;right=0;align=left;spacingLeft=6;overflow=hidden;whiteSpace=wrap;html=1;" parent="GASi60yf1O-cEDSjTEbu-456" vertex="1">
          <mxGeometry x="30" width="150" height="30" as="geometry">
            <mxRectangle width="150" height="30" as="alternateBounds" />
          </mxGeometry>
        </mxCell>
        <mxCell id="GASi60yf1O-cEDSjTEbu-459" value="" style="shape=partialRectangle;connectable=0;fillColor=none;top=0;left=0;bottom=0;right=0;editable=1;overflow=hidden;whiteSpace=wrap;html=1;" parent="GASi60yf1O-cEDSjTEbu-445" vertex="1">
          <mxGeometry y="125.45181818181817" width="30" height="24.545454545454547" as="geometry">
            <mxRectangle width="30" height="30" as="alternateBounds" />
          </mxGeometry>
        </mxCell>
        <mxCell id="GASi60yf1O-cEDSjTEbu-460" value="DecisionDate: date" style="shape=partialRectangle;connectable=0;fillColor=none;top=0;left=0;bottom=0;right=0;align=left;spacingLeft=6;overflow=hidden;whiteSpace=wrap;html=1;" parent="GASi60yf1O-cEDSjTEbu-445" vertex="1">
          <mxGeometry x="30" y="155.45781818181817" width="150" height="24.545454545454547" as="geometry">
            <mxRectangle width="150" height="30" as="alternateBounds" />
          </mxGeometry>
        </mxCell>
        <mxCell id="GASi60yf1O-cEDSjTEbu-461" value="" style="endArrow=none;html=1;rounded=0;" parent="GASi60yf1O-cEDSjTEbu-442" edge="1">
          <mxGeometry width="50" height="50" relative="1" as="geometry">
            <mxPoint x="30" y="180.00000000000003" as="sourcePoint" />
            <mxPoint x="30" y="150" as="targetPoint" />
          </mxGeometry>
        </mxCell>
        <mxCell id="GASi60yf1O-cEDSjTEbu-462" value="" style="endArrow=none;html=1;rounded=0;" parent="GASi60yf1O-cEDSjTEbu-441" edge="1">
          <mxGeometry width="50" height="50" relative="1" as="geometry">
            <mxPoint x="30" y="155.45454545454544" as="sourcePoint" />
            <mxPoint x="30" y="122.72727272727272" as="targetPoint" />
          </mxGeometry>
        </mxCell>
        <mxCell id="GASi60yf1O-cEDSjTEbu-463" value="" style="group" parent="1" vertex="1" connectable="0">
          <mxGeometry x="670" y="860" width="180" height="220" as="geometry" />
        </mxCell>
        <mxCell id="GASi60yf1O-cEDSjTEbu-464" value="" style="group" parent="GASi60yf1O-cEDSjTEbu-463" vertex="1" connectable="0">
          <mxGeometry width="180" height="220.00000000000003" as="geometry" />
        </mxCell>
        <mxCell id="GASi60yf1O-cEDSjTEbu-465" value="" style="group" parent="GASi60yf1O-cEDSjTEbu-464" vertex="1" connectable="0">
          <mxGeometry width="180" height="220.00000000000003" as="geometry" />
        </mxCell>
        <mxCell id="GASi60yf1O-cEDSjTEbu-466" value="SubmissionTime: datetime" style="shape=partialRectangle;connectable=0;fillColor=none;top=0;left=0;bottom=0;right=0;align=left;spacingLeft=6;overflow=hidden;whiteSpace=wrap;html=1;" parent="GASi60yf1O-cEDSjTEbu-465" vertex="1">
          <mxGeometry x="30" y="183.33333333333334" width="150" height="36.66666666666667" as="geometry">
            <mxRectangle width="150" height="30" as="alternateBounds" />
          </mxGeometry>
        </mxCell>
        <mxCell id="GASi60yf1O-cEDSjTEbu-467" value="" style="shape=partialRectangle;connectable=0;fillColor=none;top=0;left=0;bottom=0;right=0;editable=1;overflow=hidden;whiteSpace=wrap;html=1;" parent="GASi60yf1O-cEDSjTEbu-465" vertex="1">
          <mxGeometry y="183.33333333333334" width="30" height="36.66666666666667" as="geometry">
            <mxRectangle width="30" height="30" as="alternateBounds" />
          </mxGeometry>
        </mxCell>
        <mxCell id="GASi60yf1O-cEDSjTEbu-468" value="" style="group" parent="GASi60yf1O-cEDSjTEbu-465" vertex="1" connectable="0">
          <mxGeometry width="180" height="220.00000000000003" as="geometry" />
        </mxCell>
        <mxCell id="GASi60yf1O-cEDSjTEbu-469" value="InterviewFeedback" style="shape=table;startSize=30;container=1;collapsible=1;childLayout=tableLayout;fixedRows=1;rowLines=0;fontStyle=1;align=center;resizeLast=1;html=1;" parent="GASi60yf1O-cEDSjTEbu-468" vertex="1">
          <mxGeometry width="180" height="220.00000000000003" as="geometry" />
        </mxCell>
        <mxCell id="GASi60yf1O-cEDSjTEbu-470" value="" style="shape=tableRow;horizontal=0;startSize=0;swimlaneHead=0;swimlaneBody=0;fillColor=none;collapsible=0;dropTarget=0;points=[[0,0.5],[1,0.5]];portConstraint=eastwest;top=0;left=0;right=0;bottom=1;" parent="GASi60yf1O-cEDSjTEbu-469" vertex="1">
          <mxGeometry y="30" width="180" height="30" as="geometry" />
        </mxCell>
        <mxCell id="GASi60yf1O-cEDSjTEbu-471" value="PK" style="shape=partialRectangle;connectable=0;fillColor=none;top=0;left=0;bottom=0;right=0;fontStyle=1;overflow=hidden;whiteSpace=wrap;html=1;" parent="GASi60yf1O-cEDSjTEbu-470" vertex="1">
          <mxGeometry width="30" height="30" as="geometry">
            <mxRectangle width="30" height="30" as="alternateBounds" />
          </mxGeometry>
        </mxCell>
        <mxCell id="GASi60yf1O-cEDSjTEbu-472" value="FeedbackID: int" style="shape=partialRectangle;connectable=0;fillColor=none;top=0;left=0;bottom=0;right=0;align=left;spacingLeft=6;fontStyle=5;overflow=hidden;whiteSpace=wrap;html=1;" parent="GASi60yf1O-cEDSjTEbu-470" vertex="1">
          <mxGeometry x="30" width="150" height="30" as="geometry">
            <mxRectangle width="150" height="30" as="alternateBounds" />
          </mxGeometry>
        </mxCell>
        <mxCell id="GASi60yf1O-cEDSjTEbu-473" value="" style="shape=tableRow;horizontal=0;startSize=0;swimlaneHead=0;swimlaneBody=0;fillColor=none;collapsible=0;dropTarget=0;points=[[0,0.5],[1,0.5]];portConstraint=eastwest;top=0;left=0;right=0;bottom=0;" parent="GASi60yf1O-cEDSjTEbu-469" vertex="1">
          <mxGeometry y="60" width="180" height="30" as="geometry" />
        </mxCell>
        <mxCell id="GASi60yf1O-cEDSjTEbu-474" value="&lt;b&gt;FK&lt;/b&gt;" style="shape=partialRectangle;connectable=0;fillColor=none;top=0;left=0;bottom=0;right=0;editable=1;overflow=hidden;whiteSpace=wrap;html=1;" parent="GASi60yf1O-cEDSjTEbu-473" vertex="1">
          <mxGeometry width="30" height="30" as="geometry">
            <mxRectangle width="30" height="30" as="alternateBounds" />
          </mxGeometry>
        </mxCell>
        <mxCell id="GASi60yf1O-cEDSjTEbu-475" value="InterviewID: int" style="shape=partialRectangle;connectable=0;fillColor=none;top=0;left=0;bottom=0;right=0;align=left;spacingLeft=6;overflow=hidden;whiteSpace=wrap;html=1;" parent="GASi60yf1O-cEDSjTEbu-473" vertex="1">
          <mxGeometry x="30" width="150" height="30" as="geometry">
            <mxRectangle width="150" height="30" as="alternateBounds" />
          </mxGeometry>
        </mxCell>
        <mxCell id="GASi60yf1O-cEDSjTEbu-476" value="" style="shape=tableRow;horizontal=0;startSize=0;swimlaneHead=0;swimlaneBody=0;fillColor=none;collapsible=0;dropTarget=0;points=[[0,0.5],[1,0.5]];portConstraint=eastwest;top=0;left=0;right=0;bottom=0;" parent="GASi60yf1O-cEDSjTEbu-469" vertex="1">
          <mxGeometry y="90" width="180" height="30" as="geometry" />
        </mxCell>
        <mxCell id="GASi60yf1O-cEDSjTEbu-477" value="&lt;b&gt;FK&lt;/b&gt;" style="shape=partialRectangle;connectable=0;fillColor=none;top=0;left=0;bottom=0;right=0;editable=1;overflow=hidden;whiteSpace=wrap;html=1;" parent="GASi60yf1O-cEDSjTEbu-476" vertex="1">
          <mxGeometry width="30" height="30" as="geometry">
            <mxRectangle width="30" height="30" as="alternateBounds" />
          </mxGeometry>
        </mxCell>
        <mxCell id="GASi60yf1O-cEDSjTEbu-478" value="PanelistID: int" style="shape=partialRectangle;connectable=0;fillColor=none;top=0;left=0;bottom=0;right=0;align=left;spacingLeft=6;overflow=hidden;whiteSpace=wrap;html=1;" parent="GASi60yf1O-cEDSjTEbu-476" vertex="1">
          <mxGeometry x="30" width="150" height="30" as="geometry">
            <mxRectangle width="150" height="30" as="alternateBounds" />
          </mxGeometry>
        </mxCell>
        <mxCell id="GASi60yf1O-cEDSjTEbu-479" value="" style="shape=tableRow;horizontal=0;startSize=0;swimlaneHead=0;swimlaneBody=0;fillColor=none;collapsible=0;dropTarget=0;points=[[0,0.5],[1,0.5]];portConstraint=eastwest;top=0;left=0;right=0;bottom=0;" parent="GASi60yf1O-cEDSjTEbu-469" vertex="1">
          <mxGeometry y="120" width="180" height="30" as="geometry" />
        </mxCell>
        <mxCell id="GASi60yf1O-cEDSjTEbu-480" value="" style="shape=partialRectangle;connectable=0;fillColor=none;top=0;left=0;bottom=0;right=0;editable=1;overflow=hidden;whiteSpace=wrap;html=1;" parent="GASi60yf1O-cEDSjTEbu-479" vertex="1">
          <mxGeometry width="30" height="30" as="geometry">
            <mxRectangle width="30" height="30" as="alternateBounds" />
          </mxGeometry>
        </mxCell>
        <mxCell id="GASi60yf1O-cEDSjTEbu-481" value="Comments: string" style="shape=partialRectangle;connectable=0;fillColor=none;top=0;left=0;bottom=0;right=0;align=left;spacingLeft=6;overflow=hidden;whiteSpace=wrap;html=1;" parent="GASi60yf1O-cEDSjTEbu-479" vertex="1">
          <mxGeometry x="30" width="150" height="30" as="geometry">
            <mxRectangle width="150" height="30" as="alternateBounds" />
          </mxGeometry>
        </mxCell>
        <mxCell id="GASi60yf1O-cEDSjTEbu-482" value="" style="shape=partialRectangle;connectable=0;fillColor=none;top=0;left=0;bottom=0;right=0;editable=1;overflow=hidden;whiteSpace=wrap;html=1;" parent="GASi60yf1O-cEDSjTEbu-468" vertex="1">
          <mxGeometry y="153.32999999999998" width="30" height="30" as="geometry">
            <mxRectangle width="30" height="30" as="alternateBounds" />
          </mxGeometry>
        </mxCell>
        <mxCell id="GASi60yf1O-cEDSjTEbu-483" value="Rating: int" style="shape=partialRectangle;connectable=0;fillColor=none;top=0;left=0;bottom=0;right=0;align=left;spacingLeft=6;overflow=hidden;whiteSpace=wrap;html=1;" parent="GASi60yf1O-cEDSjTEbu-468" vertex="1">
          <mxGeometry x="30" y="153.32999999999998" width="150" height="30" as="geometry">
            <mxRectangle width="150" height="30" as="alternateBounds" />
          </mxGeometry>
        </mxCell>
        <mxCell id="GASi60yf1O-cEDSjTEbu-484" value="" style="endArrow=none;html=1;rounded=0;" parent="GASi60yf1O-cEDSjTEbu-468" edge="1">
          <mxGeometry width="50" height="50" relative="1" as="geometry">
            <mxPoint x="30" y="188.32999999999993" as="sourcePoint" />
            <mxPoint x="30" y="148.32999999999993" as="targetPoint" />
          </mxGeometry>
        </mxCell>
        <mxCell id="GASi60yf1O-cEDSjTEbu-485" value="" style="endArrow=none;html=1;rounded=0;" parent="GASi60yf1O-cEDSjTEbu-463" edge="1">
          <mxGeometry width="50" height="50" relative="1" as="geometry">
            <mxPoint x="30" y="220.00000000000003" as="sourcePoint" />
            <mxPoint x="30" y="183.33333333333334" as="targetPoint" />
          </mxGeometry>
        </mxCell>
        <mxCell id="GASi60yf1O-cEDSjTEbu-486" value="" style="group" parent="1" vertex="1" connectable="0">
          <mxGeometry x="390" y="1140" width="180" height="220" as="geometry" />
        </mxCell>
        <mxCell id="GASi60yf1O-cEDSjTEbu-487" value="" style="group" parent="GASi60yf1O-cEDSjTEbu-486" vertex="1" connectable="0">
          <mxGeometry width="180" height="220.00000000000003" as="geometry" />
        </mxCell>
        <mxCell id="GASi60yf1O-cEDSjTEbu-488" value="" style="group" parent="GASi60yf1O-cEDSjTEbu-487" vertex="1" connectable="0">
          <mxGeometry width="180" height="220.00000000000003" as="geometry" />
        </mxCell>
        <mxCell id="GASi60yf1O-cEDSjTEbu-489" value="Status: string" style="shape=partialRectangle;connectable=0;fillColor=none;top=0;left=0;bottom=0;right=0;align=left;spacingLeft=6;overflow=hidden;whiteSpace=wrap;html=1;" parent="GASi60yf1O-cEDSjTEbu-488" vertex="1">
          <mxGeometry x="30" y="183.33333333333334" width="150" height="36.66666666666667" as="geometry">
            <mxRectangle width="150" height="30" as="alternateBounds" />
          </mxGeometry>
        </mxCell>
        <mxCell id="GASi60yf1O-cEDSjTEbu-490" value="" style="shape=partialRectangle;connectable=0;fillColor=none;top=0;left=0;bottom=0;right=0;editable=1;overflow=hidden;whiteSpace=wrap;html=1;" parent="GASi60yf1O-cEDSjTEbu-488" vertex="1">
          <mxGeometry y="183.33333333333334" width="30" height="36.66666666666667" as="geometry">
            <mxRectangle width="30" height="30" as="alternateBounds" />
          </mxGeometry>
        </mxCell>
        <mxCell id="GASi60yf1O-cEDSjTEbu-491" value="" style="group" parent="GASi60yf1O-cEDSjTEbu-488" vertex="1" connectable="0">
          <mxGeometry width="180" height="220.00000000000003" as="geometry" />
        </mxCell>
        <mxCell id="GASi60yf1O-cEDSjTEbu-492" value="Communication" style="shape=table;startSize=30;container=1;collapsible=1;childLayout=tableLayout;fixedRows=1;rowLines=0;fontStyle=1;align=center;resizeLast=1;html=1;" parent="GASi60yf1O-cEDSjTEbu-491" vertex="1">
          <mxGeometry width="180" height="220.00000000000003" as="geometry" />
        </mxCell>
        <mxCell id="GASi60yf1O-cEDSjTEbu-493" value="" style="shape=tableRow;horizontal=0;startSize=0;swimlaneHead=0;swimlaneBody=0;fillColor=none;collapsible=0;dropTarget=0;points=[[0,0.5],[1,0.5]];portConstraint=eastwest;top=0;left=0;right=0;bottom=1;" parent="GASi60yf1O-cEDSjTEbu-492" vertex="1">
          <mxGeometry y="30" width="180" height="30" as="geometry" />
        </mxCell>
        <mxCell id="GASi60yf1O-cEDSjTEbu-494" value="PK" style="shape=partialRectangle;connectable=0;fillColor=none;top=0;left=0;bottom=0;right=0;fontStyle=1;overflow=hidden;whiteSpace=wrap;html=1;" parent="GASi60yf1O-cEDSjTEbu-493" vertex="1">
          <mxGeometry width="30" height="30" as="geometry">
            <mxRectangle width="30" height="30" as="alternateBounds" />
          </mxGeometry>
        </mxCell>
        <mxCell id="GASi60yf1O-cEDSjTEbu-495" value="CommunicationID: int" style="shape=partialRectangle;connectable=0;fillColor=none;top=0;left=0;bottom=0;right=0;align=left;spacingLeft=6;fontStyle=5;overflow=hidden;whiteSpace=wrap;html=1;" parent="GASi60yf1O-cEDSjTEbu-493" vertex="1">
          <mxGeometry x="30" width="150" height="30" as="geometry">
            <mxRectangle width="150" height="30" as="alternateBounds" />
          </mxGeometry>
        </mxCell>
        <mxCell id="GASi60yf1O-cEDSjTEbu-496" value="" style="shape=tableRow;horizontal=0;startSize=0;swimlaneHead=0;swimlaneBody=0;fillColor=none;collapsible=0;dropTarget=0;points=[[0,0.5],[1,0.5]];portConstraint=eastwest;top=0;left=0;right=0;bottom=0;" parent="GASi60yf1O-cEDSjTEbu-492" vertex="1">
          <mxGeometry y="60" width="180" height="30" as="geometry" />
        </mxCell>
        <mxCell id="GASi60yf1O-cEDSjTEbu-497" value="&lt;b&gt;FK&lt;/b&gt;" style="shape=partialRectangle;connectable=0;fillColor=none;top=0;left=0;bottom=0;right=0;editable=1;overflow=hidden;whiteSpace=wrap;html=1;" parent="GASi60yf1O-cEDSjTEbu-496" vertex="1">
          <mxGeometry width="30" height="30" as="geometry">
            <mxRectangle width="30" height="30" as="alternateBounds" />
          </mxGeometry>
        </mxCell>
        <mxCell id="GASi60yf1O-cEDSjTEbu-498" value="DecisionID: int" style="shape=partialRectangle;connectable=0;fillColor=none;top=0;left=0;bottom=0;right=0;align=left;spacingLeft=6;overflow=hidden;whiteSpace=wrap;html=1;" parent="GASi60yf1O-cEDSjTEbu-496" vertex="1">
          <mxGeometry x="30" width="150" height="30" as="geometry">
            <mxRectangle width="150" height="30" as="alternateBounds" />
          </mxGeometry>
        </mxCell>
        <mxCell id="GASi60yf1O-cEDSjTEbu-499" value="" style="shape=tableRow;horizontal=0;startSize=0;swimlaneHead=0;swimlaneBody=0;fillColor=none;collapsible=0;dropTarget=0;points=[[0,0.5],[1,0.5]];portConstraint=eastwest;top=0;left=0;right=0;bottom=0;" parent="GASi60yf1O-cEDSjTEbu-492" vertex="1">
          <mxGeometry y="90" width="180" height="30" as="geometry" />
        </mxCell>
        <mxCell id="GASi60yf1O-cEDSjTEbu-500" value="" style="shape=partialRectangle;connectable=0;fillColor=none;top=0;left=0;bottom=0;right=0;editable=1;overflow=hidden;whiteSpace=wrap;html=1;" parent="GASi60yf1O-cEDSjTEbu-499" vertex="1">
          <mxGeometry width="30" height="30" as="geometry">
            <mxRectangle width="30" height="30" as="alternateBounds" />
          </mxGeometry>
        </mxCell>
        <mxCell id="GASi60yf1O-cEDSjTEbu-501" value="Type: string" style="shape=partialRectangle;connectable=0;fillColor=none;top=0;left=0;bottom=0;right=0;align=left;spacingLeft=6;overflow=hidden;whiteSpace=wrap;html=1;" parent="GASi60yf1O-cEDSjTEbu-499" vertex="1">
          <mxGeometry x="30" width="150" height="30" as="geometry">
            <mxRectangle width="150" height="30" as="alternateBounds" />
          </mxGeometry>
        </mxCell>
        <mxCell id="GASi60yf1O-cEDSjTEbu-502" value="" style="shape=tableRow;horizontal=0;startSize=0;swimlaneHead=0;swimlaneBody=0;fillColor=none;collapsible=0;dropTarget=0;points=[[0,0.5],[1,0.5]];portConstraint=eastwest;top=0;left=0;right=0;bottom=0;" parent="GASi60yf1O-cEDSjTEbu-492" vertex="1">
          <mxGeometry y="120" width="180" height="30" as="geometry" />
        </mxCell>
        <mxCell id="GASi60yf1O-cEDSjTEbu-503" value="" style="shape=partialRectangle;connectable=0;fillColor=none;top=0;left=0;bottom=0;right=0;editable=1;overflow=hidden;whiteSpace=wrap;html=1;" parent="GASi60yf1O-cEDSjTEbu-502" vertex="1">
          <mxGeometry width="30" height="30" as="geometry">
            <mxRectangle width="30" height="30" as="alternateBounds" />
          </mxGeometry>
        </mxCell>
        <mxCell id="GASi60yf1O-cEDSjTEbu-504" value="Content: string" style="shape=partialRectangle;connectable=0;fillColor=none;top=0;left=0;bottom=0;right=0;align=left;spacingLeft=6;overflow=hidden;whiteSpace=wrap;html=1;" parent="GASi60yf1O-cEDSjTEbu-502" vertex="1">
          <mxGeometry x="30" width="150" height="30" as="geometry">
            <mxRectangle width="150" height="30" as="alternateBounds" />
          </mxGeometry>
        </mxCell>
        <mxCell id="GASi60yf1O-cEDSjTEbu-505" value="" style="shape=partialRectangle;connectable=0;fillColor=none;top=0;left=0;bottom=0;right=0;editable=1;overflow=hidden;whiteSpace=wrap;html=1;" parent="GASi60yf1O-cEDSjTEbu-491" vertex="1">
          <mxGeometry y="153.32999999999998" width="30" height="30" as="geometry">
            <mxRectangle width="30" height="30" as="alternateBounds" />
          </mxGeometry>
        </mxCell>
        <mxCell id="GASi60yf1O-cEDSjTEbu-506" value="SentTime: datetime" style="shape=partialRectangle;connectable=0;fillColor=none;top=0;left=0;bottom=0;right=0;align=left;spacingLeft=6;overflow=hidden;whiteSpace=wrap;html=1;" parent="GASi60yf1O-cEDSjTEbu-491" vertex="1">
          <mxGeometry x="30" y="153.32999999999998" width="150" height="30" as="geometry">
            <mxRectangle width="150" height="30" as="alternateBounds" />
          </mxGeometry>
        </mxCell>
        <mxCell id="GASi60yf1O-cEDSjTEbu-507" value="" style="endArrow=none;html=1;rounded=0;" parent="GASi60yf1O-cEDSjTEbu-491" edge="1">
          <mxGeometry width="50" height="50" relative="1" as="geometry">
            <mxPoint x="30" y="188.32999999999993" as="sourcePoint" />
            <mxPoint x="30" y="148.32999999999993" as="targetPoint" />
          </mxGeometry>
        </mxCell>
        <mxCell id="GASi60yf1O-cEDSjTEbu-508" value="" style="endArrow=none;html=1;rounded=0;" parent="GASi60yf1O-cEDSjTEbu-486" edge="1">
          <mxGeometry width="50" height="50" relative="1" as="geometry">
            <mxPoint x="30" y="220.00000000000003" as="sourcePoint" />
            <mxPoint x="30" y="183.33333333333334" as="targetPoint" />
          </mxGeometry>
        </mxCell>
        <mxCell id="GASi60yf1O-cEDSjTEbu-509" style="edgeStyle=orthogonalEdgeStyle;rounded=0;orthogonalLoop=1;jettySize=auto;html=1;entryX=0.5;entryY=0;entryDx=0;entryDy=0;startArrow=ERmandOne;startFill=0;endArrow=ERzeroToMany;endFill=0;" parent="1" edge="1">
          <mxGeometry relative="1" as="geometry">
            <mxPoint x="149.86" y="-290" as="sourcePoint" />
            <mxPoint x="149.86" y="-200" as="targetPoint" />
          </mxGeometry>
        </mxCell>
        <mxCell id="GASi60yf1O-cEDSjTEbu-510" value="handles" style="edgeLabel;html=1;align=center;verticalAlign=middle;resizable=0;points=[];" parent="GASi60yf1O-cEDSjTEbu-509" vertex="1" connectable="0">
          <mxGeometry x="0.0111" y="2" relative="1" as="geometry">
            <mxPoint y="1" as="offset" />
          </mxGeometry>
        </mxCell>
        <mxCell id="GASi60yf1O-cEDSjTEbu-513" style="edgeStyle=orthogonalEdgeStyle;rounded=0;orthogonalLoop=1;jettySize=auto;html=1;entryX=0.5;entryY=0;entryDx=0;entryDy=0;startArrow=ERzeroToMany;startFill=0;endArrow=ERmandOne;endFill=0;" parent="1" source="GASi60yf1O-cEDSjTEbu-194" target="GASi60yf1O-cEDSjTEbu-251" edge="1">
          <mxGeometry relative="1" as="geometry" />
        </mxCell>
        <mxCell id="GASi60yf1O-cEDSjTEbu-516" value="is for" style="edgeLabel;html=1;align=center;verticalAlign=middle;resizable=0;points=[];" parent="GASi60yf1O-cEDSjTEbu-513" vertex="1" connectable="0">
          <mxGeometry x="-0.0385" y="2" relative="1" as="geometry">
            <mxPoint y="1" as="offset" />
          </mxGeometry>
        </mxCell>
        <mxCell id="GASi60yf1O-cEDSjTEbu-515" style="edgeStyle=orthogonalEdgeStyle;rounded=0;orthogonalLoop=1;jettySize=auto;html=1;endArrow=ERmandOne;endFill=0;startArrow=ERzeroToMany;startFill=0;" parent="1" source="GASi60yf1O-cEDSjTEbu-251" target="GASi60yf1O-cEDSjTEbu-42" edge="1">
          <mxGeometry relative="1" as="geometry">
            <Array as="points">
              <mxPoint x="300" y="260" />
              <mxPoint x="300" y="-110" />
            </Array>
          </mxGeometry>
        </mxCell>
        <mxCell id="GASi60yf1O-cEDSjTEbu-517" value="has" style="edgeLabel;html=1;align=center;verticalAlign=middle;resizable=0;points=[];" parent="GASi60yf1O-cEDSjTEbu-515" vertex="1" connectable="0">
          <mxGeometry x="0.118" y="-2" relative="1" as="geometry">
            <mxPoint as="offset" />
          </mxGeometry>
        </mxCell>
        <mxCell id="GASi60yf1O-cEDSjTEbu-518" style="edgeStyle=orthogonalEdgeStyle;rounded=0;orthogonalLoop=1;jettySize=auto;html=1;entryX=0.5;entryY=0;entryDx=0;entryDy=0;startArrow=ERmandOne;startFill=0;endArrow=ERzeroToMany;endFill=0;" parent="1" source="GASi60yf1O-cEDSjTEbu-251" target="GASi60yf1O-cEDSjTEbu-401" edge="1">
          <mxGeometry relative="1" as="geometry" />
        </mxCell>
        <mxCell id="GASi60yf1O-cEDSjTEbu-519" value="receives" style="edgeLabel;html=1;align=center;verticalAlign=middle;resizable=0;points=[];" parent="GASi60yf1O-cEDSjTEbu-518" vertex="1" connectable="0">
          <mxGeometry x="-0.0706" relative="1" as="geometry">
            <mxPoint y="1" as="offset" />
          </mxGeometry>
        </mxCell>
        <mxCell id="GASi60yf1O-cEDSjTEbu-520" style="edgeStyle=orthogonalEdgeStyle;rounded=0;orthogonalLoop=1;jettySize=auto;html=1;entryX=1;entryY=0.5;entryDx=0;entryDy=0;startArrow=ERmandOne;startFill=0;endArrow=ERzeroToMany;endFill=0;" parent="1" source="GASi60yf1O-cEDSjTEbu-291" target="GASi60yf1O-cEDSjTEbu-408" edge="1">
          <mxGeometry relative="1" as="geometry">
            <Array as="points">
              <mxPoint x="310" y="260" />
              <mxPoint x="310" y="600" />
            </Array>
          </mxGeometry>
        </mxCell>
        <mxCell id="GASi60yf1O-cEDSjTEbu-521" value="submits" style="edgeLabel;html=1;align=center;verticalAlign=middle;resizable=0;points=[];" parent="GASi60yf1O-cEDSjTEbu-520" vertex="1" connectable="0">
          <mxGeometry x="-0.0225" y="-2" relative="1" as="geometry">
            <mxPoint y="1" as="offset" />
          </mxGeometry>
        </mxCell>
        <mxCell id="GASi60yf1O-cEDSjTEbu-522" style="edgeStyle=orthogonalEdgeStyle;rounded=0;orthogonalLoop=1;jettySize=auto;html=1;entryX=0.417;entryY=0.002;entryDx=0;entryDy=0;entryPerimeter=0;startArrow=ERmandOne;startFill=0;endArrow=ERzeroToMany;endFill=0;" parent="1" source="GASi60yf1O-cEDSjTEbu-291" target="GASi60yf1O-cEDSjTEbu-377" edge="1">
          <mxGeometry relative="1" as="geometry" />
        </mxCell>
        <mxCell id="GASi60yf1O-cEDSjTEbu-523" value="receives" style="edgeLabel;html=1;align=center;verticalAlign=middle;resizable=0;points=[];" parent="GASi60yf1O-cEDSjTEbu-522" vertex="1" connectable="0">
          <mxGeometry x="-0.3188" relative="1" as="geometry">
            <mxPoint as="offset" />
          </mxGeometry>
        </mxCell>
        <mxCell id="GASi60yf1O-cEDSjTEbu-524" style="edgeStyle=orthogonalEdgeStyle;rounded=0;orthogonalLoop=1;jettySize=auto;html=1;entryX=0.544;entryY=0.006;entryDx=0;entryDy=0;startArrow=ERmandOne;startFill=0;endArrow=ERzeroToMany;endFill=0;entryPerimeter=0;" parent="1" source="GASi60yf1O-cEDSjTEbu-291" target="GASi60yf1O-cEDSjTEbu-351" edge="1">
          <mxGeometry relative="1" as="geometry">
            <Array as="points">
              <mxPoint x="600" y="300" />
              <mxPoint x="600" y="360" />
              <mxPoint x="758" y="360" />
            </Array>
          </mxGeometry>
        </mxCell>
        <mxCell id="GASi60yf1O-cEDSjTEbu-527" style="edgeStyle=orthogonalEdgeStyle;rounded=0;orthogonalLoop=1;jettySize=auto;html=1;entryX=1;entryY=0.103;entryDx=0;entryDy=0;entryPerimeter=0;endArrow=ERmandOne;endFill=0;startArrow=ERoneToMany;startFill=0;exitX=0;exitY=0.5;exitDx=0;exitDy=0;" parent="1" source="GASi60yf1O-cEDSjTEbu-358" target="GASi60yf1O-cEDSjTEbu-424" edge="1">
          <mxGeometry relative="1" as="geometry">
            <Array as="points">
              <mxPoint x="570" y="650" />
              <mxPoint x="570" y="813" />
            </Array>
          </mxGeometry>
        </mxCell>
        <mxCell id="GASi60yf1O-cEDSjTEbu-529" value="has" style="edgeLabel;html=1;align=center;verticalAlign=middle;resizable=0;points=[];" parent="GASi60yf1O-cEDSjTEbu-527" vertex="1" connectable="0">
          <mxGeometry x="0.4335" y="4" relative="1" as="geometry">
            <mxPoint as="offset" />
          </mxGeometry>
        </mxCell>
        <mxCell id="GASi60yf1O-cEDSjTEbu-530" style="edgeStyle=orthogonalEdgeStyle;rounded=0;orthogonalLoop=1;jettySize=auto;html=1;entryX=1;entryY=0.5;entryDx=0;entryDy=0;endArrow=ERmandOne;endFill=0;startArrow=ERzeroToMany;startFill=0;" parent="1" source="GASi60yf1O-cEDSjTEbu-361" target="GASi60yf1O-cEDSjTEbu-453" edge="1">
          <mxGeometry relative="1" as="geometry" />
        </mxCell>
        <mxCell id="GASi60yf1O-cEDSjTEbu-531" style="edgeStyle=orthogonalEdgeStyle;rounded=0;orthogonalLoop=1;jettySize=auto;html=1;entryX=0.444;entryY=0.007;entryDx=0;entryDy=0;entryPerimeter=0;startArrow=ERmandOne;startFill=0;endArrow=ERzeroToMany;endFill=0;" parent="1" source="GASi60yf1O-cEDSjTEbu-351" target="GASi60yf1O-cEDSjTEbu-469" edge="1">
          <mxGeometry relative="1" as="geometry" />
        </mxCell>
        <mxCell id="GASi60yf1O-cEDSjTEbu-532" style="edgeStyle=orthogonalEdgeStyle;rounded=0;orthogonalLoop=1;jettySize=auto;html=1;entryX=0.5;entryY=0;entryDx=0;entryDy=0;startArrow=ERmandOne;startFill=0;endArrow=ERzeroToMany;endFill=0;" parent="1" source="GASi60yf1O-cEDSjTEbu-446" target="GASi60yf1O-cEDSjTEbu-492" edge="1">
          <mxGeometry relative="1" as="geometry" />
        </mxCell>
        <mxCell id="GASi60yf1O-cEDSjTEbu-533" value="generates" style="edgeLabel;html=1;align=center;verticalAlign=middle;resizable=0;points=[];" parent="GASi60yf1O-cEDSjTEbu-532" vertex="1" connectable="0">
          <mxGeometry x="0.0603" y="1" relative="1" as="geometry">
            <mxPoint as="offset" />
          </mxGeometry>
        </mxCell>
        <mxCell id="GASi60yf1O-cEDSjTEbu-534" style="edgeStyle=orthogonalEdgeStyle;rounded=0;orthogonalLoop=1;jettySize=auto;html=1;startArrow=ERmandOne;startFill=0;endArrow=ERzeroToMany;endFill=0;" parent="1" source="GASi60yf1O-cEDSjTEbu-218" target="GASi60yf1O-cEDSjTEbu-325" edge="1">
          <mxGeometry relative="1" as="geometry" />
        </mxCell>
        <mxCell id="euBnFJcf-Pppdy-fU70u-1" style="edgeStyle=orthogonalEdgeStyle;rounded=0;orthogonalLoop=1;jettySize=auto;html=1;startArrow=ERmandOne;startFill=0;endArrow=ERzeroToMany;endFill=0;exitX=1.002;exitY=0.105;exitDx=0;exitDy=0;exitPerimeter=0;" edge="1" parent="1" source="GASi60yf1O-cEDSjTEbu-42">
          <mxGeometry relative="1" as="geometry">
            <mxPoint x="580" y="-180.5" as="sourcePoint" />
            <mxPoint x="600" y="-110" as="targetPoint" />
          </mxGeometry>
        </mxCell>
        <mxCell id="euBnFJcf-Pppdy-fU70u-2" value="references" style="edgeLabel;html=1;align=center;verticalAlign=middle;resizable=0;points=[];" vertex="1" connectable="0" parent="euBnFJcf-Pppdy-fU70u-1">
          <mxGeometry x="-0.3188" relative="1" as="geometry">
            <mxPoint as="offset" />
          </mxGeometry>
        </mxCell>
      </root>
    </mxGraphModel>
  </diagram>
</mxfile>
